<svg width="24" height="24" viewBox="0 0 24 24" fill="none" xmlns="http://www.w3.org/2000/svg">
<g id="Gear">
<g id="Group 83">
<path id="Vector" d="M19.7136 8.26625C19.7336 8.24384 19.7526 8.22 19.7692 8.19499V8.19499C19.8832 8.02408 19.8979 7.80457 19.8003 7.62384C19.3852 6.85552 18.9035 6.20312 18.3086 5.62021C18.1064 5.4221 17.7997 5.38503 17.5465 5.51163V5.51163C15.9767 6.45349 13.9884 5.51163 13.6744 3.62791V3.62791C13.6105 3.37228 13.4054 3.17444 13.1462 3.12702C12.758 3.05599 12.3546 3 11.8953 3C11.4222 3 11.0679 3.05941 10.6982 3.13348C10.4814 3.1769 10.3256 3.36844 10.3256 3.58952V3.58952C10.3256 3.61507 10.3235 3.6409 10.319 3.66604C9.98472 5.5243 8.01263 6.44711 6.45349 5.51163V5.51163C6.2003 5.38503 5.89336 5.42192 5.69407 5.62295C5.10358 6.21857 4.62449 6.91717 4.21147 7.62809C4.10841 7.8055 4.11803 8.02589 4.23184 8.1966V8.1966C4.2478 8.22053 4.26591 8.24333 4.28509 8.26478C5.50333 9.62746 4.97522 11.7956 3.31395 12.4186V12.4186C3.13 12.4799 3.01184 12.6598 3.0329 12.8525C3.13387 13.7767 3.30897 14.6879 3.61261 15.4774C3.68114 15.6556 3.8556 15.7674 4.04651 15.7674V15.7674C5.81865 15.6632 7.27928 17.3242 6.77347 19.0955C6.76955 19.1092 6.76423 19.1227 6.75785 19.1355V19.1355C6.70355 19.2441 6.73847 19.3764 6.84062 19.442C7.70105 19.9953 8.64644 20.4529 9.6768 20.6619C9.75525 20.6778 9.8361 20.6523 9.8927 20.5957V20.5957C9.9022 20.5862 9.91097 20.5758 9.91886 20.5649C10.9664 19.1213 13.14 19.1218 14.1868 20.5663C14.194 20.5762 14.202 20.5858 14.2107 20.5945V20.5945C14.2674 20.6511 14.3501 20.6732 14.4272 20.6515C15.4881 20.3529 16.4557 19.9576 17.2463 19.2985C17.296 19.2571 17.2984 19.1822 17.2527 19.1364V19.1364C17.2395 19.1232 17.2297 19.1066 17.2246 19.0887C16.7234 17.3199 18.0795 15.6633 19.9535 15.7674V15.7674C20.1431 15.7674 20.3143 15.6522 20.3815 15.4749C20.7034 14.6263 20.9438 13.7712 20.9914 12.8541C21.0016 12.6567 20.8735 12.4811 20.686 12.4186V12.4186C19.0254 11.6921 18.4971 9.62734 19.7136 8.26625Z" stroke="#676E89" stroke-miterlimit="10" stroke-linecap="round" stroke-linejoin="round"/>
<path id="Vector_2" d="M12.2288 15.3402C14.016 15.214 15.3625 13.6628 15.2363 11.8756C15.1101 10.0883 13.5589 8.74184 11.7717 8.86807C9.98442 8.99431 8.63792 10.5455 8.76416 12.3327C8.8904 14.12 10.4416 15.4665 12.2288 15.3402Z" stroke="#676E89" stroke-miterlimit="10" stroke-linecap="round" stroke-linejoin="round"/>
</g>
</g>
</svg>
