<svg width="161" height="50" viewBox="0 0 161 50" fill="none" xmlns="http://www.w3.org/2000/svg">
<path d="M72.496 40.704C72.496 41.348 72.394 41.934 72.19 42.462C71.986 42.99 71.698 43.442 71.326 43.818C70.954 44.194 70.508 44.486 69.988 44.694C69.468 44.898 68.892 45 68.26 45H65.044V36.402H68.26C68.892 36.402 69.468 36.506 69.988 36.714C70.508 36.918 70.954 37.21 71.326 37.59C71.698 37.966 71.986 38.418 72.19 38.946C72.394 39.474 72.496 40.06 72.496 40.704ZM71.302 40.704C71.302 40.176 71.23 39.704 71.086 39.288C70.942 38.872 70.738 38.52 70.474 38.232C70.21 37.944 69.89 37.724 69.514 37.572C69.138 37.42 68.72 37.344 68.26 37.344H66.214V44.058H68.26C68.72 44.058 69.138 43.982 69.514 43.83C69.89 43.678 70.21 43.46 70.474 43.176C70.738 42.888 70.942 42.536 71.086 42.12C71.23 41.704 71.302 41.232 71.302 40.704ZM78.6152 45H78.1412C78.0372 45 77.9532 44.984 77.8892 44.952C77.8252 44.92 77.7832 44.852 77.7632 44.748L77.6432 44.184C77.4832 44.328 77.3272 44.458 77.1752 44.574C77.0232 44.686 76.8632 44.782 76.6952 44.862C76.5272 44.938 76.3472 44.996 76.1552 45.036C75.9672 45.076 75.7572 45.096 75.5252 45.096C75.2892 45.096 75.0672 45.064 74.8592 45C74.6552 44.932 74.4772 44.832 74.3252 44.7C74.1732 44.568 74.0512 44.402 73.9592 44.202C73.8712 43.998 73.8272 43.758 73.8272 43.482C73.8272 43.242 73.8932 43.012 74.0252 42.792C74.1572 42.568 74.3692 42.37 74.6612 42.198C74.9572 42.026 75.3432 41.886 75.8192 41.778C76.2952 41.666 76.8772 41.602 77.5652 41.586V41.112C77.5652 40.64 77.4632 40.284 77.2592 40.044C77.0592 39.8 76.7612 39.678 76.3652 39.678C76.1052 39.678 75.8852 39.712 75.7052 39.78C75.5292 39.844 75.3752 39.918 75.2432 40.002C75.1152 40.082 75.0032 40.156 74.9072 40.224C74.8152 40.288 74.7232 40.32 74.6312 40.32C74.5592 40.32 74.4952 40.302 74.4392 40.266C74.3872 40.226 74.3452 40.178 74.3132 40.122L74.1212 39.78C74.4572 39.456 74.8192 39.214 75.2072 39.054C75.5952 38.894 76.0252 38.814 76.4972 38.814C76.8372 38.814 77.1392 38.87 77.4032 38.982C77.6672 39.094 77.8892 39.25 78.0692 39.45C78.2492 39.65 78.3852 39.892 78.4772 40.176C78.5692 40.46 78.6152 40.772 78.6152 41.112V45ZM75.8432 44.346C76.0312 44.346 76.2032 44.328 76.3592 44.292C76.5152 44.252 76.6612 44.198 76.7972 44.13C76.9372 44.058 77.0692 43.972 77.1932 43.872C77.3212 43.772 77.4452 43.658 77.5652 43.53V42.264C77.0732 42.28 76.6552 42.32 76.3112 42.384C75.9672 42.444 75.6872 42.524 75.4712 42.624C75.2552 42.724 75.0972 42.842 74.9972 42.978C74.9012 43.114 74.8532 43.266 74.8532 43.434C74.8532 43.594 74.8792 43.732 74.9312 43.848C74.9832 43.964 75.0532 44.06 75.1412 44.136C75.2292 44.208 75.3332 44.262 75.4532 44.298C75.5732 44.33 75.7032 44.346 75.8432 44.346ZM83.9532 39.924C83.9052 40.012 83.8312 40.056 83.7312 40.056C83.6712 40.056 83.6032 40.034 83.5272 39.99C83.4512 39.946 83.3572 39.898 83.2452 39.846C83.1372 39.79 83.0072 39.74 82.8552 39.696C82.7032 39.648 82.5232 39.624 82.3152 39.624C82.1352 39.624 81.9732 39.648 81.8292 39.696C81.6852 39.74 81.5612 39.802 81.4572 39.882C81.3572 39.962 81.2792 40.056 81.2232 40.164C81.1712 40.268 81.1452 40.382 81.1452 40.506C81.1452 40.662 81.1892 40.792 81.2772 40.896C81.3692 41 81.4892 41.09 81.6372 41.166C81.7852 41.242 81.9532 41.31 82.1412 41.37C82.3292 41.426 82.5212 41.488 82.7172 41.556C82.9172 41.62 83.1112 41.692 83.2992 41.772C83.4872 41.852 83.6552 41.952 83.8032 42.072C83.9512 42.192 84.0692 42.34 84.1572 42.516C84.2492 42.688 84.2952 42.896 84.2952 43.14C84.2952 43.42 84.2452 43.68 84.1452 43.92C84.0452 44.156 83.8972 44.362 83.7012 44.538C83.5052 44.71 83.2652 44.846 82.9812 44.946C82.6972 45.046 82.3692 45.096 81.9972 45.096C81.5732 45.096 81.1892 45.028 80.8452 44.892C80.5012 44.752 80.2092 44.574 79.9692 44.358L80.2212 43.95C80.2532 43.898 80.2912 43.858 80.3352 43.83C80.3792 43.802 80.4372 43.788 80.5092 43.788C80.5812 43.788 80.6572 43.816 80.7372 43.872C80.8172 43.928 80.9132 43.99 81.0252 44.058C81.1412 44.126 81.2792 44.188 81.4392 44.244C81.6032 44.3 81.8072 44.328 82.0512 44.328C82.2592 44.328 82.4412 44.302 82.5972 44.25C82.7532 44.194 82.8832 44.12 82.9872 44.028C83.0912 43.936 83.1672 43.83 83.2152 43.71C83.2672 43.59 83.2932 43.462 83.2932 43.326C83.2932 43.158 83.2472 43.02 83.1552 42.912C83.0672 42.8 82.9492 42.706 82.8012 42.63C82.6532 42.55 82.4832 42.482 82.2912 42.426C82.1032 42.366 81.9092 42.304 81.7092 42.24C81.5132 42.176 81.3192 42.104 81.1272 42.024C80.9392 41.94 80.7712 41.836 80.6232 41.712C80.4752 41.588 80.3552 41.436 80.2632 41.256C80.1752 41.072 80.1312 40.85 80.1312 40.59C80.1312 40.358 80.1792 40.136 80.2752 39.924C80.3712 39.708 80.5112 39.52 80.6952 39.36C80.8792 39.196 81.1052 39.066 81.3732 38.97C81.6412 38.874 81.9472 38.826 82.2912 38.826C82.6912 38.826 83.0492 38.89 83.3652 39.018C83.6852 39.142 83.9612 39.314 84.1932 39.534L83.9532 39.924ZM85.9163 45V36.162H86.9843V39.738C87.2443 39.462 87.5323 39.242 87.8483 39.078C88.1643 38.91 88.5283 38.826 88.9403 38.826C89.2723 38.826 89.5643 38.882 89.8163 38.994C90.0723 39.102 90.2843 39.258 90.4523 39.462C90.6243 39.662 90.7543 39.904 90.8423 40.188C90.9303 40.472 90.9743 40.786 90.9743 41.13V45H89.9063V41.13C89.9063 40.67 89.8003 40.314 89.5883 40.062C89.3803 39.806 89.0603 39.678 88.6283 39.678C88.3123 39.678 88.0163 39.754 87.7403 39.906C87.4683 40.058 87.2163 40.264 86.9843 40.524V45H85.9163ZM92.8603 45V36.162H93.9343V39.798C94.1863 39.506 94.4743 39.272 94.7983 39.096C95.1263 38.916 95.5003 38.826 95.9203 38.826C96.2723 38.826 96.5903 38.892 96.8743 39.024C97.1583 39.156 97.4003 39.354 97.6003 39.618C97.8003 39.878 97.9543 40.202 98.0623 40.59C98.1703 40.974 98.2243 41.418 98.2243 41.922C98.2243 42.37 98.1643 42.788 98.0443 43.176C97.9243 43.56 97.7503 43.894 97.5223 44.178C97.2983 44.458 97.0223 44.68 96.6943 44.844C96.3703 45.004 96.0043 45.084 95.5963 45.084C95.2043 45.084 94.8703 45.008 94.5943 44.856C94.3223 44.704 94.0843 44.492 93.8803 44.22L93.8263 44.772C93.7943 44.924 93.7023 45 93.5503 45H92.8603ZM95.5723 39.678C95.2243 39.678 94.9183 39.758 94.6543 39.918C94.3943 40.078 94.1543 40.304 93.9343 40.596V43.536C94.1263 43.8 94.3383 43.986 94.5703 44.094C94.8063 44.202 95.0683 44.256 95.3563 44.256C95.9243 44.256 96.3603 44.054 96.6643 43.65C96.9683 43.246 97.1203 42.67 97.1203 41.922C97.1203 41.526 97.0843 41.186 97.0123 40.902C96.9443 40.618 96.8443 40.386 96.7123 40.206C96.5803 40.022 96.4183 39.888 96.2263 39.804C96.0343 39.72 95.8163 39.678 95.5723 39.678ZM102.227 38.826C102.671 38.826 103.071 38.9 103.427 39.048C103.787 39.196 104.091 39.406 104.339 39.678C104.591 39.95 104.783 40.28 104.915 40.668C105.051 41.052 105.119 41.482 105.119 41.958C105.119 42.438 105.051 42.87 104.915 43.254C104.783 43.638 104.591 43.966 104.339 44.238C104.091 44.51 103.787 44.72 103.427 44.868C103.071 45.012 102.671 45.084 102.227 45.084C101.783 45.084 101.381 45.012 101.021 44.868C100.665 44.72 100.361 44.51 100.109 44.238C99.8574 43.966 99.6634 43.638 99.5274 43.254C99.3914 42.87 99.3234 42.438 99.3234 41.958C99.3234 41.482 99.3914 41.052 99.5274 40.668C99.6634 40.28 99.8574 39.95 100.109 39.678C100.361 39.406 100.665 39.196 101.021 39.048C101.381 38.9 101.783 38.826 102.227 38.826ZM102.227 44.25C102.827 44.25 103.275 44.05 103.571 43.65C103.867 43.246 104.015 42.684 104.015 41.964C104.015 41.24 103.867 40.676 103.571 40.272C103.275 39.868 102.827 39.666 102.227 39.666C101.923 39.666 101.659 39.718 101.435 39.822C101.211 39.926 101.023 40.076 100.871 40.272C100.723 40.468 100.611 40.71 100.535 40.998C100.463 41.282 100.427 41.604 100.427 41.964C100.427 42.324 100.463 42.646 100.535 42.93C100.611 43.214 100.723 43.454 100.871 43.65C101.023 43.842 101.211 43.99 101.435 44.094C101.659 44.198 101.923 44.25 102.227 44.25ZM111.139 45H110.665C110.561 45 110.477 44.984 110.413 44.952C110.349 44.92 110.307 44.852 110.287 44.748L110.167 44.184C110.007 44.328 109.851 44.458 109.699 44.574C109.547 44.686 109.387 44.782 109.219 44.862C109.051 44.938 108.871 44.996 108.679 45.036C108.491 45.076 108.281 45.096 108.049 45.096C107.813 45.096 107.591 45.064 107.383 45C107.179 44.932 107.001 44.832 106.849 44.7C106.697 44.568 106.575 44.402 106.483 44.202C106.395 43.998 106.351 43.758 106.351 43.482C106.351 43.242 106.417 43.012 106.549 42.792C106.681 42.568 106.893 42.37 107.185 42.198C107.481 42.026 107.867 41.886 108.343 41.778C108.819 41.666 109.401 41.602 110.089 41.586V41.112C110.089 40.64 109.987 40.284 109.783 40.044C109.583 39.8 109.285 39.678 108.889 39.678C108.629 39.678 108.409 39.712 108.229 39.78C108.053 39.844 107.899 39.918 107.767 40.002C107.639 40.082 107.527 40.156 107.431 40.224C107.339 40.288 107.247 40.32 107.155 40.32C107.083 40.32 107.019 40.302 106.963 40.266C106.911 40.226 106.869 40.178 106.837 40.122L106.645 39.78C106.981 39.456 107.343 39.214 107.731 39.054C108.119 38.894 108.549 38.814 109.021 38.814C109.361 38.814 109.663 38.87 109.927 38.982C110.191 39.094 110.413 39.25 110.593 39.45C110.773 39.65 110.909 39.892 111.001 40.176C111.093 40.46 111.139 40.772 111.139 41.112V45ZM108.367 44.346C108.555 44.346 108.727 44.328 108.883 44.292C109.039 44.252 109.185 44.198 109.321 44.13C109.461 44.058 109.593 43.972 109.717 43.872C109.845 43.772 109.969 43.658 110.089 43.53V42.264C109.597 42.28 109.179 42.32 108.835 42.384C108.491 42.444 108.211 42.524 107.995 42.624C107.779 42.724 107.621 42.842 107.521 42.978C107.425 43.114 107.377 43.266 107.377 43.434C107.377 43.594 107.403 43.732 107.455 43.848C107.507 43.964 107.577 44.06 107.665 44.136C107.753 44.208 107.857 44.262 107.977 44.298C108.097 44.33 108.227 44.346 108.367 44.346ZM112.997 45V38.922H113.609C113.725 38.922 113.805 38.944 113.849 38.988C113.893 39.032 113.923 39.108 113.939 39.216L114.011 40.164C114.219 39.74 114.475 39.41 114.779 39.174C115.087 38.934 115.447 38.814 115.859 38.814C116.027 38.814 116.179 38.834 116.315 38.874C116.451 38.91 116.577 38.962 116.693 39.03L116.555 39.828C116.527 39.928 116.465 39.978 116.369 39.978C116.313 39.978 116.227 39.96 116.111 39.924C115.995 39.884 115.833 39.864 115.625 39.864C115.253 39.864 114.941 39.972 114.689 40.188C114.441 40.404 114.233 40.718 114.065 41.13V45H112.997ZM122.355 45C122.203 45 122.107 44.926 122.067 44.778L121.971 44.04C121.711 44.356 121.413 44.61 121.077 44.802C120.745 44.99 120.363 45.084 119.931 45.084C119.583 45.084 119.267 45.018 118.983 44.886C118.699 44.75 118.457 44.552 118.257 44.292C118.057 44.032 117.903 43.708 117.795 43.32C117.687 42.932 117.633 42.486 117.633 41.982C117.633 41.534 117.693 41.118 117.813 40.734C117.933 40.346 118.105 40.01 118.329 39.726C118.557 39.442 118.833 39.22 119.157 39.06C119.481 38.896 119.849 38.814 120.261 38.814C120.633 38.814 120.951 38.878 121.215 39.006C121.479 39.13 121.715 39.306 121.923 39.534V36.162H122.991V45H122.355ZM120.285 44.22C120.633 44.22 120.937 44.14 121.197 43.98C121.461 43.82 121.703 43.594 121.923 43.302V40.362C121.727 40.098 121.511 39.914 121.275 39.81C121.043 39.702 120.785 39.648 120.501 39.648C119.933 39.648 119.497 39.85 119.193 40.254C118.889 40.658 118.737 41.234 118.737 41.982C118.737 42.378 118.771 42.718 118.839 43.002C118.907 43.282 119.007 43.514 119.139 43.698C119.271 43.878 119.433 44.01 119.625 44.094C119.817 44.178 120.037 44.22 120.285 44.22ZM126.813 38.922H127.689C127.773 38.922 127.843 38.944 127.899 38.988C127.955 39.032 127.995 39.084 128.019 39.144L129.561 43.056C129.617 43.2 129.661 43.344 129.693 43.488C129.725 43.632 129.755 43.774 129.783 43.914C129.815 43.774 129.849 43.632 129.885 43.488C129.921 43.344 129.967 43.2 130.023 43.056L131.583 39.144C131.607 39.08 131.645 39.028 131.697 38.988C131.753 38.944 131.821 38.922 131.901 38.922H132.735L130.257 45H129.291L126.813 38.922ZM136.691 36.306C137.055 36.306 137.395 36.36 137.711 36.468C138.027 36.576 138.299 36.734 138.527 36.942C138.759 37.146 138.941 37.396 139.073 37.692C139.205 37.988 139.271 38.324 139.271 38.7C139.271 39.02 139.223 39.316 139.127 39.588C139.031 39.86 138.901 40.122 138.737 40.374C138.573 40.622 138.383 40.864 138.167 41.1C137.955 41.332 137.729 41.57 137.489 41.814L135.227 44.13C135.387 44.086 135.549 44.052 135.713 44.028C135.877 44 136.035 43.986 136.187 43.986H139.067C139.183 43.986 139.275 44.02 139.343 44.088C139.411 44.156 139.445 44.244 139.445 44.352V45H133.709V44.634C133.709 44.558 133.723 44.48 133.751 44.4C133.783 44.32 133.833 44.246 133.901 44.178L136.655 41.412C136.883 41.18 137.091 40.958 137.279 40.746C137.467 40.53 137.627 40.314 137.759 40.098C137.895 39.882 137.999 39.664 138.071 39.444C138.143 39.22 138.179 38.982 138.179 38.73C138.179 38.478 138.139 38.258 138.059 38.07C137.979 37.878 137.869 37.72 137.729 37.596C137.589 37.472 137.425 37.38 137.237 37.32C137.049 37.256 136.847 37.224 136.631 37.224C136.415 37.224 136.215 37.256 136.031 37.32C135.847 37.384 135.683 37.474 135.539 37.59C135.399 37.702 135.279 37.836 135.179 37.992C135.083 38.148 135.015 38.32 134.975 38.508C134.943 38.624 134.895 38.708 134.831 38.76C134.767 38.812 134.683 38.838 134.579 38.838C134.559 38.838 134.537 38.838 134.513 38.838C134.493 38.834 134.469 38.83 134.441 38.826L133.883 38.73C133.939 38.338 134.047 37.992 134.207 37.692C134.367 37.388 134.569 37.134 134.813 36.93C135.061 36.726 135.343 36.572 135.659 36.468C135.979 36.36 136.323 36.306 136.691 36.306ZM140.814 44.34C140.814 44.236 140.832 44.138 140.868 44.046C140.908 43.954 140.96 43.874 141.024 43.806C141.092 43.738 141.172 43.684 141.264 43.644C141.356 43.604 141.454 43.584 141.558 43.584C141.662 43.584 141.76 43.604 141.852 43.644C141.944 43.684 142.024 43.738 142.092 43.806C142.16 43.874 142.212 43.954 142.248 44.046C142.288 44.138 142.308 44.236 142.308 44.34C142.308 44.448 142.288 44.548 142.248 44.64C142.212 44.728 142.16 44.806 142.092 44.874C142.024 44.942 141.944 44.994 141.852 45.03C141.76 45.07 141.662 45.09 141.558 45.09C141.454 45.09 141.356 45.07 141.264 45.03C141.172 44.994 141.092 44.942 141.024 44.874C140.96 44.806 140.908 44.728 140.868 44.64C140.832 44.548 140.814 44.448 140.814 44.34ZM146.969 39.732C147.313 39.732 147.639 39.79 147.947 39.906C148.255 40.018 148.525 40.184 148.757 40.404C148.989 40.62 149.173 40.888 149.309 41.208C149.445 41.524 149.513 41.886 149.513 42.294C149.513 42.69 149.441 43.058 149.297 43.398C149.153 43.738 148.951 44.034 148.691 44.286C148.435 44.538 148.125 44.736 147.761 44.88C147.397 45.024 146.997 45.096 146.561 45.096C146.129 45.096 145.737 45.028 145.385 44.892C145.037 44.752 144.739 44.556 144.491 44.304C144.243 44.048 144.051 43.74 143.915 43.38C143.783 43.016 143.717 42.61 143.717 42.162C143.717 41.786 143.801 41.386 143.969 40.962C144.137 40.538 144.403 40.082 144.767 39.594L146.945 36.66C147.001 36.588 147.079 36.528 147.179 36.48C147.279 36.428 147.393 36.402 147.521 36.402H148.469L145.487 40.176C145.691 40.036 145.917 39.928 146.165 39.852C146.413 39.772 146.681 39.732 146.969 39.732ZM144.749 42.348C144.749 42.624 144.789 42.876 144.869 43.104C144.949 43.332 145.065 43.528 145.217 43.692C145.373 43.856 145.561 43.984 145.781 44.076C146.005 44.164 146.259 44.208 146.543 44.208C146.831 44.208 147.091 44.162 147.323 44.07C147.555 43.978 147.753 43.85 147.917 43.686C148.085 43.522 148.213 43.328 148.301 43.104C148.393 42.88 148.439 42.636 148.439 42.372C148.439 42.092 148.395 41.84 148.307 41.616C148.219 41.388 148.095 41.196 147.935 41.04C147.775 40.88 147.583 40.758 147.359 40.674C147.135 40.59 146.889 40.548 146.621 40.548C146.333 40.548 146.073 40.598 145.841 40.698C145.609 40.794 145.411 40.926 145.247 41.094C145.087 41.258 144.963 41.45 144.875 41.67C144.791 41.886 144.749 42.112 144.749 42.348ZM150.798 44.34C150.798 44.236 150.816 44.138 150.852 44.046C150.892 43.954 150.944 43.874 151.008 43.806C151.076 43.738 151.156 43.684 151.248 43.644C151.34 43.604 151.438 43.584 151.542 43.584C151.646 43.584 151.744 43.604 151.836 43.644C151.928 43.684 152.008 43.738 152.076 43.806C152.144 43.874 152.196 43.954 152.232 44.046C152.272 44.138 152.292 44.236 152.292 44.34C152.292 44.448 152.272 44.548 152.232 44.64C152.196 44.728 152.144 44.806 152.076 44.874C152.008 44.942 151.928 44.994 151.836 45.03C151.744 45.07 151.646 45.09 151.542 45.09C151.438 45.09 151.34 45.07 151.248 45.03C151.156 44.994 151.076 44.942 151.008 44.874C150.944 44.806 150.892 44.728 150.852 44.64C150.816 44.548 150.798 44.448 150.798 44.34ZM159.653 40.704C159.653 41.456 159.571 42.108 159.407 42.66C159.247 43.208 159.027 43.662 158.747 44.022C158.467 44.382 158.135 44.65 157.751 44.826C157.371 45.002 156.963 45.09 156.527 45.09C156.087 45.09 155.677 45.002 155.297 44.826C154.921 44.65 154.593 44.382 154.313 44.022C154.033 43.662 153.813 43.208 153.653 42.66C153.493 42.108 153.413 41.456 153.413 40.704C153.413 39.952 153.493 39.3 153.653 38.748C153.813 38.196 154.033 37.74 154.313 37.38C154.593 37.016 154.921 36.746 155.297 36.57C155.677 36.394 156.087 36.306 156.527 36.306C156.963 36.306 157.371 36.394 157.751 36.57C158.135 36.746 158.467 37.016 158.747 37.38C159.027 37.74 159.247 38.196 159.407 38.748C159.571 39.3 159.653 39.952 159.653 40.704ZM158.543 40.704C158.543 40.048 158.487 39.498 158.375 39.054C158.267 38.606 158.119 38.246 157.931 37.974C157.747 37.702 157.533 37.508 157.289 37.392C157.045 37.272 156.791 37.212 156.527 37.212C156.263 37.212 156.009 37.272 155.765 37.392C155.521 37.508 155.307 37.702 155.123 37.974C154.939 38.246 154.791 38.606 154.679 39.054C154.571 39.498 154.517 40.048 154.517 40.704C154.517 41.36 154.571 41.91 154.679 42.354C154.791 42.798 154.939 43.156 155.123 43.428C155.307 43.7 155.521 43.896 155.765 44.016C156.009 44.132 156.263 44.19 156.527 44.19C156.791 44.19 157.045 44.132 157.289 44.016C157.533 43.896 157.747 43.7 157.931 43.428C158.119 43.156 158.267 42.798 158.375 42.354C158.487 41.91 158.543 41.36 158.543 40.704Z" fill="#B1B1C9"/>
<path d="M72.65 17.34C72.7833 17.5933 72.91 17.8567 73.03 18.13C73.1567 18.4033 73.2767 18.6833 73.39 18.97C73.5033 18.6767 73.6233 18.3933 73.75 18.12C73.8767 17.84 74.0067 17.57 74.14 17.31L77.88 9.95C77.9467 9.82333 78.0133 9.72667 78.08 9.66C78.1533 9.58667 78.2333 9.53333 78.32 9.5C78.4067 9.46667 78.5033 9.44667 78.61 9.44C78.7233 9.43333 78.8533 9.43 79 9.43H81.58V24H78.6V15.62C78.6 15.2133 78.62 14.7733 78.66 14.3L74.8 21.79C74.68 22.0233 74.5167 22.2 74.31 22.32C74.11 22.44 73.88 22.5 73.62 22.5H73.16C72.9 22.5 72.6667 22.44 72.46 22.32C72.26 22.2 72.1 22.0233 71.98 21.79L68.1 14.29C68.1267 14.5233 68.1467 14.7567 68.16 14.99C68.1733 15.2167 68.18 15.4267 68.18 15.62V24H65.2V9.43H67.78C67.9267 9.43 68.0533 9.43333 68.16 9.44C68.2733 9.44667 68.3733 9.46667 68.46 9.5C68.5467 9.53333 68.6233 9.58667 68.69 9.66C68.7633 9.72667 68.8333 9.82333 68.9 9.95L72.65 17.34ZM88.8291 13.47C89.5157 13.47 90.1424 13.5767 90.7091 13.79C91.2824 14.0033 91.7724 14.3133 92.1791 14.72C92.5924 15.1267 92.9124 15.6267 93.1391 16.22C93.3724 16.8067 93.4891 17.4733 93.4891 18.22C93.4891 18.4533 93.4791 18.6433 93.4591 18.79C93.4391 18.9367 93.4024 19.0533 93.3491 19.14C93.2957 19.2267 93.2224 19.2867 93.1291 19.32C93.0424 19.3533 92.9291 19.37 92.7891 19.37H86.8091C86.9091 20.2367 87.1724 20.8667 87.5991 21.26C88.0257 21.6467 88.5757 21.84 89.2491 21.84C89.6091 21.84 89.9191 21.7967 90.1791 21.71C90.4391 21.6233 90.6691 21.5267 90.8691 21.42C91.0757 21.3133 91.2624 21.2167 91.4291 21.13C91.6024 21.0433 91.7824 21 91.9691 21C92.2157 21 92.4024 21.09 92.5291 21.27L93.4291 22.38C93.1091 22.7467 92.7624 23.0467 92.3891 23.28C92.0224 23.5067 91.6424 23.6867 91.2491 23.82C90.8624 23.9467 90.4724 24.0333 90.0791 24.08C89.6924 24.1333 89.3224 24.16 88.9691 24.16C88.2424 24.16 87.5591 24.0433 86.9191 23.81C86.2857 23.57 85.7291 23.2167 85.2491 22.75C84.7757 22.2833 84.3991 21.7033 84.1191 21.01C83.8457 20.3167 83.7091 19.51 83.7091 18.59C83.7091 17.8967 83.8257 17.24 84.0591 16.62C84.2991 16 84.6391 15.4567 85.0791 14.99C85.5257 14.5233 86.0624 14.1533 86.6891 13.88C87.3224 13.6067 88.0357 13.47 88.8291 13.47ZM88.8891 15.61C88.2957 15.61 87.8324 15.78 87.4991 16.12C87.1657 16.4533 86.9457 16.9367 86.8391 17.57H90.7091C90.7091 17.3233 90.6757 17.0833 90.6091 16.85C90.5491 16.6167 90.4457 16.41 90.2991 16.23C90.1591 16.0433 89.9724 15.8933 89.7391 15.78C89.5057 15.6667 89.2224 15.61 88.8891 15.61ZM102.948 24C102.755 24 102.591 23.9567 102.458 23.87C102.331 23.7833 102.241 23.6533 102.188 23.48L101.948 22.69C101.741 22.91 101.525 23.11 101.298 23.29C101.071 23.47 100.825 23.6267 100.558 23.76C100.298 23.8867 100.015 23.9833 99.708 24.05C99.408 24.1233 99.0813 24.16 98.728 24.16C98.188 24.16 97.688 24.04 97.228 23.8C96.768 23.56 96.3713 23.2133 96.038 22.76C95.7046 22.3067 95.4413 21.7533 95.248 21.1C95.0613 20.44 94.968 19.69 94.968 18.85C94.968 18.0767 95.0746 17.36 95.288 16.7C95.5013 16.0333 95.8013 15.46 96.188 14.98C96.5813 14.4933 97.0513 14.1133 97.598 13.84C98.1446 13.5667 98.748 13.43 99.408 13.43C99.9413 13.43 100.391 13.51 100.758 13.67C101.131 13.8233 101.468 14.0267 101.768 14.28V9.03H104.868V24H102.948ZM99.808 21.78C100.035 21.78 100.238 21.76 100.418 21.72C100.605 21.6733 100.775 21.61 100.928 21.53C101.081 21.45 101.225 21.35 101.358 21.23C101.498 21.11 101.635 20.97 101.768 20.81V16.41C101.528 16.15 101.271 15.97 100.998 15.87C100.731 15.7633 100.448 15.71 100.148 15.71C99.8613 15.71 99.598 15.7667 99.358 15.88C99.118 15.9933 98.908 16.1767 98.728 16.43C98.5546 16.6767 98.418 17 98.318 17.4C98.218 17.8 98.168 18.2833 98.168 18.85C98.168 19.3967 98.208 19.8567 98.288 20.23C98.368 20.6033 98.478 20.9067 98.618 21.14C98.7646 21.3667 98.938 21.53 99.138 21.63C99.338 21.73 99.5613 21.78 99.808 21.78ZM110.77 9.03V17.42H111.23C111.423 17.42 111.57 17.3933 111.67 17.34C111.776 17.2867 111.876 17.19 111.97 17.05L113.93 14.13C114.043 13.9567 114.176 13.83 114.33 13.75C114.49 13.67 114.69 13.63 114.93 13.63H117.77L115.09 17.32C114.963 17.4933 114.823 17.6467 114.67 17.78C114.523 17.9133 114.363 18.0333 114.19 18.14C114.49 18.3667 114.75 18.6667 114.97 19.04L117.89 24H115.09C114.856 24 114.653 23.9633 114.48 23.89C114.313 23.81 114.176 23.6733 114.07 23.48L112.11 19.81C112.016 19.6433 111.92 19.5367 111.82 19.49C111.72 19.4367 111.57 19.41 111.37 19.41H110.77V24H107.67V9.03H110.77ZM122.793 13.63V24H119.693V13.63H122.793ZM123.153 10.79C123.153 11.0367 123.103 11.27 123.003 11.49C122.903 11.7033 122.766 11.8933 122.593 12.06C122.42 12.22 122.216 12.35 121.983 12.45C121.756 12.5433 121.513 12.59 121.253 12.59C121 12.59 120.763 12.5433 120.543 12.45C120.323 12.35 120.126 12.22 119.953 12.06C119.786 11.8933 119.653 11.7033 119.553 11.49C119.46 11.27 119.413 11.0367 119.413 10.79C119.413 10.5367 119.46 10.3 119.553 10.08C119.653 9.86 119.786 9.66667 119.953 9.5C120.126 9.33333 120.323 9.20333 120.543 9.11C120.763 9.01667 121 8.97 121.253 8.97C121.513 8.97 121.756 9.01667 121.983 9.11C122.216 9.20333 122.42 9.33333 122.593 9.5C122.766 9.66667 122.903 9.86 123.003 10.08C123.103 10.3 123.153 10.5367 123.153 10.79ZM129.336 24.16C128.843 24.16 128.406 24.09 128.026 23.95C127.653 23.8033 127.336 23.6 127.076 23.34C126.823 23.0733 126.629 22.7533 126.496 22.38C126.363 22.0067 126.296 21.59 126.296 21.13V15.77H125.416C125.256 15.77 125.119 15.72 125.006 15.62C124.893 15.5133 124.836 15.36 124.836 15.16V13.95L126.486 13.63L127.096 11.1C127.176 10.78 127.403 10.62 127.776 10.62H129.396V13.65H131.916V15.77H129.396V20.92C129.396 21.16 129.453 21.36 129.566 21.52C129.686 21.6733 129.856 21.75 130.076 21.75C130.189 21.75 130.283 21.74 130.356 21.72C130.436 21.6933 130.503 21.6667 130.556 21.64C130.616 21.6067 130.669 21.58 130.716 21.56C130.769 21.5333 130.829 21.52 130.896 21.52C130.989 21.52 131.063 21.5433 131.116 21.59C131.176 21.63 131.236 21.6967 131.296 21.79L132.236 23.26C131.836 23.56 131.386 23.7867 130.886 23.94C130.386 24.0867 129.869 24.16 129.336 24.16ZM140.784 25.08V27.02H132.904V25.08H140.784Z" fill="#110B56"/>
<circle cx="25" cy="25" r="25" transform="rotate(-90 25 25)" fill="#54C1FB"/>
<path d="M23.5621 19.9408C23.5621 17.9172 21.858 16.1065 19.7278 16.1065C17.5976 16.1065 16 17.9172 16 19.9408C16 21.9645 17.7041 23.6686 19.7278 23.6686C21.858 23.6686 23.5621 21.9645 23.5621 19.9408Z" fill="white"/>
<path d="M33.7869 21.645L33.7869 18.1302C33.7869 17.0651 32.9348 16 31.8698 16L28.355 16C27.1834 16 26.3313 16.9586 26.3313 18.1302L26.3313 21.645C26.3313 22.7101 27.1834 23.6687 28.355 23.6687L31.8698 23.6687C32.8283 23.6687 33.7869 22.7101 33.7869 21.645Z" fill="white"/>
<path d="M33.787 31.9764L33.787 28.4616C33.787 27.3965 32.9349 26.438 31.7633 26.438L18.0237 26.438C16.9586 26.438 16 27.29 16 28.4616L16 31.9764C16 33.0415 16.8521 34.0001 18.0237 34.0001L31.7633 34.0001C32.8284 34.0001 33.787 33.0415 33.787 31.9764Z" fill="white"/>
</svg>
