<svg width="18" height="20" viewBox="0 0 18 20" fill="none" xmlns="http://www.w3.org/2000/svg">
<g id="Notification">
<g id="Group 67">
<g id="Group 45">
<path id="Vector" d="M1.5 16.1579H16.6579" stroke="#0F3F62" stroke-linecap="round" stroke-linejoin="round"/>
<path id="Rectangle 23" d="M2.44702 9.52635C2.44702 5.86383 5.41608 2.89478 9.0786 2.89478V2.89478C12.7411 2.89478 15.7102 5.86383 15.7102 9.52635V16.1579H2.44702V9.52635Z" stroke="#0F3F62" stroke-linecap="round" stroke-linejoin="round"/>
<path id="Subtract" d="M7.43755 16.1578V15.6578C7.25907 15.6578 7.09411 15.753 7.00474 15.9075L7.43755 16.1578ZM10.7201 16.1578L11.1529 15.9075C11.0635 15.753 10.8986 15.6578 10.7201 15.6578V16.1578ZM7.68408 17.1052C7.68408 16.8503 7.75199 16.6128 7.87036 16.4082L7.00474 15.9075C6.8007 16.2602 6.68408 16.6698 6.68408 17.1052H7.68408ZM9.07882 18.4999C8.30853 18.4999 7.68408 17.8755 7.68408 17.1052H6.68408C6.68408 18.4278 7.75624 19.4999 9.07882 19.4999V18.4999ZM10.4736 17.1052C10.4736 17.8755 9.84911 18.4999 9.07882 18.4999V19.4999C10.4014 19.4999 11.4736 18.4278 11.4736 17.1052H10.4736ZM10.2873 16.4082C10.4057 16.6128 10.4736 16.8503 10.4736 17.1052H11.4736C11.4736 16.6698 11.3569 16.2602 11.1529 15.9075L10.2873 16.4082ZM10.7201 15.6578H7.43755V16.6578H10.7201V15.6578Z" fill="#0F3F62"/>
</g>
<circle id="Ellipse 10" cx="13" cy="3" r="3" fill="#FA5F1C"/>
</g>
</g>
</svg>
