<svg width="32" height="32" viewBox="0 0 32 32" fill="none" xmlns="http://www.w3.org/2000/svg">
<g id="001-rocket" clip-path="url(#clip0_1_1363)">
<g id="Group">
<g id="Group_2">
<path id="Vector" d="M13.512 23.9818L11.5027 21.9725L9.87628 23.5989L11.1524 24.875C11.3166 25.0392 11.5697 25.0748 11.7728 24.962C12.2334 24.7062 12.829 24.3722 13.512 23.9818Z" fill="#FE9168"/>
<path id="Vector_2" d="M8.037 24.2928C7.53069 23.6942 6.81931 23.3949 6.10788 23.3949C5.25494 23.3762 4.34581 23.927 3.87856 24.7366C2.16875 27.6994 1.78706 28.3106 1.65194 28.55L0.086127 31.2535C-0.140561 31.6654 0.309252 32.119 0.723939 31.8967C1.60125 31.4011 3.77606 30.1104 4.50969 29.7244L7.3975 28.0811C8.71444 27.3241 9.05219 25.4427 8.037 24.2928Z" fill="#FE9168"/>
<path id="Vector_3" d="M7.16492 20.8876L8.42336 22.1461L10.0498 20.5197L8.00454 18.4745C7.62248 19.1937 7.30492 19.8152 7.06785 20.2884C6.96767 20.4882 7.00673 20.7294 7.16492 20.8876Z" fill="#FE9168"/>
<path id="Vector_4" d="M21.1487 8.63348C20.5747 8.63348 20.0009 8.85185 19.5639 9.28885C18.6944 10.1232 18.6943 11.6242 19.5639 12.4585C20.3981 13.328 21.8993 13.328 22.7336 12.4585C24.1447 11.0534 23.1171 8.62035 21.1487 8.63348Z" fill="#FE9168"/>
<path id="Vector_5" d="M10.8184 9.89064L5.19941 9.64377C5.06685 9.63795 4.93791 9.68802 4.84416 9.78177L0.138476 14.4874C-0.128212 14.7541 0.010288 15.2099 0.380413 15.2838L6.70629 16.5451C7.78804 14.5661 9.22916 12.112 10.8184 9.89064Z" fill="#FE9168"/>
<path id="Vector_6" d="M15.4435 25.2441L16.7909 31.6249C16.8684 31.9918 17.3226 32.1264 17.5879 31.8611L22.2967 27.1523C22.3927 27.0564 22.4427 26.9238 22.434 26.7884L22.0682 21.115C19.9356 22.5805 17.4464 24.0829 15.4435 25.2441Z" fill="#FE9168"/>
<path id="Vector_7" d="M31.1292 4.90214C31.6271 3.13232 31.8736 1.60382 31.9957 0.525948C32.0296 0.226511 31.7781 -0.0288642 31.478 0.00263577C29.0615 0.256261 26.7244 0.822448 24.4966 1.69245L30.2726 7.46826C30.6298 6.5457 30.9103 5.68001 31.1292 4.90214Z" fill="#FE9168"/>
<path id="Vector_8" d="M29.3952 9.49629L22.4777 2.57886C19.8002 3.88911 17.3633 5.63254 15.2282 7.76761C13.4787 9.51711 11.4315 12.4019 9.30817 16.1101C9.21429 16.274 9.12229 16.4362 9.03204 16.5963L11.5027 19.0669L14.8787 15.6909C15.2799 15.2896 15.9304 15.2896 16.3316 15.6909C16.7328 16.092 16.7328 16.7425 16.3316 17.1437L12.9555 20.5197L15.3509 22.915C22.2966 18.8699 26.2616 16.0533 29.3952 9.49629ZM21.1489 15.1697C18.8397 15.2173 16.805 13.183 16.8528 10.8737C16.8369 7.07698 21.507 5.14361 24.1866 7.83598C26.8795 10.5171 24.9452 15.1852 21.1489 15.1697Z" fill="#FE9168"/>
</g>
</g>
</g>
<defs>
<clipPath id="clip0_1_1363">
<rect width="32" height="32" fill="white"/>
</clipPath>
</defs>
</svg>
