<svg width="32" height="32" viewBox="0 0 32 32" fill="none" xmlns="http://www.w3.org/2000/svg">
<g id="004-handshake" clip-path="url(#clip0_1_785)">
<g id="Group">
<path id="Vector" d="M23.1207 22.6925C23.1457 22.7175 23.1695 22.7435 23.1937 22.7691C23.2064 22.7806 23.2195 22.7912 23.2317 22.8034C24.2589 23.7345 25.6207 22.3449 24.6704 21.3224L24.4577 21.1097C24.4555 21.1075 24.4533 21.1054 24.4512 21.1032L17.836 14.4881L17.0176 15.3065C15.6935 16.689 13.315 16.7414 11.9259 15.4177C10.3723 14.0522 10.3398 11.4595 11.8531 10.0562L14.4892 7.49864L6.83632 2.83217C6.46423 2.60527 5.98526 2.66253 5.67711 2.97068L0.27621 8.37158C-0.0168115 8.6646 -0.084504 9.11451 0.109323 9.48085L3.35456 15.6137L4.24625 14.722C5.72124 13.2513 8.05879 13.4342 9.39014 15.0002C9.95637 15.5665 10.2521 16.302 10.2785 17.0454C11.0632 17.1094 11.8301 17.4401 12.4291 18.0391L12.7076 18.3176C13.2571 18.8671 13.5702 19.5899 13.5972 20.3628C16.4792 20.5765 17.8168 24.1686 15.7464 26.2219L14.7378 27.2305L16.6603 29.1529C16.9558 29.4484 17.3794 29.5692 17.8059 29.4636C18.7028 29.2336 18.9747 28.0732 18.3421 27.4711C17.9146 27.0436 17.9146 26.3505 18.3421 25.9229L18.3422 25.9229C18.7491 25.4383 19.4329 25.4368 19.8675 25.8987C20.3893 26.4498 21.3086 26.3878 21.7409 25.7126C22.0376 25.2553 21.9558 24.6102 21.5725 24.2407C21.145 23.8132 21.1449 23.12 21.5725 22.6925C22 22.265 22.6932 22.265 23.1207 22.6925Z" fill="#FE9168"/>
<path id="Vector_2" d="M3.709 21.3756C4.04321 21.3756 4.35736 21.2454 4.59362 21.0092L7.56372 18.0391C7.5639 18.0389 7.56415 18.0386 7.5644 18.0384L7.84217 17.7607C8.17639 17.4264 8.17639 16.8826 7.84217 16.5483L7.56378 16.27C7.09806 15.7847 6.26025 15.7847 5.79459 16.2699L2.82449 19.24C2.33671 19.7278 2.33677 20.5214 2.82449 21.0092C3.0607 21.2454 3.37485 21.3756 3.709 21.3756Z" fill="#FE9168"/>
<path id="Vector_3" d="M27.4083 16.7636C28.9461 15.3263 30.6307 11.4305 31.8751 9.24703C32.0866 8.876 32.0243 8.40947 31.7204 8.10938L26.3153 2.7713C26.0081 2.46796 25.5343 2.41158 25.1646 2.63435L20.5597 5.40881C19.6527 5.82028 18.8095 6.34556 18.0978 7.04805L13.3765 11.6286C12.8432 12.1237 12.7656 13.0172 13.2174 13.597C13.7438 14.3216 14.852 14.3973 15.4694 13.7584L17.0618 12.1659C17.4893 11.7384 18.1825 11.7384 18.61 12.1659L25.2494 18.8052L27.4083 16.7636Z" fill="#FE9168"/>
<path id="Vector_4" d="M14.1983 24.6737C14.686 24.1859 14.686 23.3923 14.1983 22.9045C13.7327 22.4192 12.8948 22.4192 12.4292 22.9045L9.45909 25.8746C8.97136 26.3624 8.97136 27.156 9.45909 27.6438C9.94681 28.1314 10.7404 28.1315 11.2282 27.6438L14.1983 24.6737Z" fill="#FE9168"/>
<path id="Vector_5" d="M7.02643 24.6928C7.36064 24.6928 7.67479 24.5628 7.91106 24.3265L11.1596 21.078C11.4921 20.7589 11.4921 20.1848 11.1596 19.8657L10.8811 19.5873C10.3936 19.0998 9.60012 19.0996 9.11228 19.587L6.1418 22.5574C5.65408 23.0452 5.65408 23.8388 6.1418 24.3266C6.37807 24.5628 6.69222 24.6928 7.02643 24.6928Z" fill="#FE9168"/>
</g>
</g>
<defs>
<clipPath id="clip0_1_785">
<rect width="32" height="32" fill="white"/>
</clipPath>
</defs>
</svg>
