<svg width="32" height="32" viewBox="0 0 32 32" fill="none" xmlns="http://www.w3.org/2000/svg">
<g id="009-gear" clip-path="url(#clip0_1_799)">
<g id="Group">
<path id="Vector" d="M7.0043 18.9036C7.44849 20.2872 8.21868 21.5881 9.31499 22.6844C10.4127 23.7821 11.7154 24.5527 13.101 24.9966C13.2074 22.0889 9.91662 18.7986 7.0043 18.9036Z" fill="#FE9168"/>
<path id="Vector_2" d="M20.8244 20.8218C19.5685 22.0777 18.8731 23.631 18.9092 24.9937C20.2911 24.5493 21.5903 23.7796 22.6855 22.6845C23.7818 21.5882 24.5519 20.2875 24.9961 18.9039C23.6382 18.865 22.0849 19.5613 20.8244 20.8218Z" fill="#FE9168"/>
<path id="Vector_3" d="M11.1605 11.1612C12.4121 9.90966 13.1072 8.36291 13.0764 7.00366C10.2808 7.86547 7.8571 10.3094 7.00879 13.0799C8.36191 13.1114 9.90629 12.4154 11.1605 11.1612Z" fill="#FE9168"/>
<path id="Vector_4" d="M24.9898 13.0757C24.1401 10.3058 21.7162 7.86368 18.9207 7.00281C18.788 9.83125 22.1562 13.2011 24.9898 13.0757Z" fill="#FE9168"/>
<path id="Vector_5" d="M16.0002 14.5035C15.617 14.5035 15.2338 14.6494 14.9421 14.941C14.3587 15.5244 14.3587 16.4737 14.9421 17.0571C15.5255 17.6404 16.4747 17.6404 17.0582 17.0571C17.6416 16.4737 17.6416 15.5245 17.0582 14.941C16.7665 14.6494 16.3834 14.5035 16.0002 14.5035Z" fill="#FE9168"/>
<path id="Vector_6" d="M24.9361 14.9467C23.0935 14.9467 21.0911 14.0631 19.5137 12.4857C18.5187 11.4908 17.7821 10.3228 17.3835 9.108C17.1034 8.25437 16.9978 7.40542 17.0676 6.60472C16.3639 6.52497 15.6322 6.52516 14.9285 6.60522C15.2769 9.81694 12.3451 13.6354 9.10886 14.6174C8.25698 14.893 7.45122 15.0036 6.61059 14.9331C6.53153 15.6356 6.53096 16.3453 6.60871 17.0479C10.7811 16.6213 15.3849 21.2261 14.9564 25.3912C15.6546 25.4681 16.3597 25.4677 17.0578 25.3897C16.8912 23.4233 17.7856 21.209 19.4985 19.496C20.4935 18.501 21.6614 17.7644 22.8762 17.3658C23.7342 17.0843 24.5872 16.9792 25.3913 17.0511C25.4696 16.3456 25.469 15.6331 25.3892 14.9277C25.2395 14.9399 25.0884 14.9467 24.9361 14.9467ZM18.3841 18.383C18.3841 18.3831 18.3841 18.3831 18.3841 18.383C17.0696 19.6974 14.9308 19.6975 13.6164 18.383C12.302 17.0686 12.302 14.9298 13.6164 13.6153C14.9307 12.3009 17.0695 12.3008 18.3841 13.6153C19.6986 14.9298 19.6986 17.0686 18.3841 18.383Z" fill="#FE9168"/>
<path id="Vector_7" d="M31.7129 12.8915C31.6096 12.3403 31.1684 11.9149 30.6147 11.8263L29.3165 11.6186C29.1727 11.5956 29.0543 11.495 29.0055 11.3577C28.8453 10.908 28.662 10.467 28.4565 10.0373C28.394 9.90656 28.4056 9.75244 28.4897 9.63437L29.2542 8.5613C29.578 8.1068 29.5863 7.49723 29.27 7.03747C28.6907 6.19515 28.0293 5.40064 27.3014 4.67264C26.4949 3.86619 25.6073 3.14194 24.6631 2.51999C24.3375 2.30543 23.9132 2.31486 23.5975 2.54355L22.304 3.48025C22.1873 3.56475 22.0342 3.57725 21.904 3.51569C21.481 3.31575 21.0474 3.13731 20.6057 2.98131C20.4696 2.93325 20.3693 2.81656 20.3454 2.67424L20.0806 1.0976C20.0164 0.714849 19.7229 0.411346 19.3426 0.334095C17.1395 -0.113347 14.8091 -0.110472 12.6077 0.342345C12.2259 0.420846 11.9324 0.727537 11.8709 1.11248L11.6196 2.68299C11.5966 2.82674 11.496 2.945 11.3589 2.99381C10.9132 3.1525 10.476 3.33406 10.0498 3.53744C9.9191 3.59981 9.76516 3.58813 9.64722 3.50406L8.35533 2.58368C8.0392 2.35855 7.6172 2.3513 7.29357 2.56568C6.36237 3.18256 5.4863 3.89919 4.68992 4.69564C3.95229 5.43315 3.28353 6.23847 2.6989 7.09285C2.38221 7.5556 2.39346 8.16842 2.72234 8.62261L3.48722 9.67887C3.57241 9.79656 3.58491 9.951 3.52272 10.0823C3.32047 10.5091 3.14003 10.9467 2.98253 11.3927C2.93428 11.5294 2.81709 11.6301 2.67415 11.6541L1.09845 11.9187C0.715757 11.983 0.412254 12.2764 0.334941 12.6567C0.112751 13.7511 3.03206e-08 14.8773 3.03206e-08 16.0038C-6.24703e-05 17.0466 0.096501 18.0889 0.287315 19.1068C0.390629 19.658 0.831883 20.0834 1.38558 20.172L2.68603 20.3801C2.82847 20.4029 2.94565 20.5026 2.99409 20.6385C3.15122 21.0799 3.33084 21.5131 3.53185 21.9355C3.59379 22.0657 3.5821 22.2189 3.49841 22.3363L2.72746 23.4184C2.40365 23.8729 2.3954 24.4825 2.71165 24.9423C3.93104 26.7177 5.52049 28.2769 7.31863 29.4598C7.6442 29.6743 8.06845 29.6649 8.38427 29.4363L9.66766 28.5069C9.78566 28.4214 9.94053 28.4089 10.0722 28.4714C10.5024 28.6757 10.9438 28.8579 11.3937 29.0168C11.5304 29.0651 11.6311 29.1823 11.6551 29.3252L11.8743 30.6306C11.9667 31.181 12.3919 31.6178 12.9406 31.7193C13.9459 31.9053 14.9753 31.9995 16.0049 31.9995C17.0478 31.9995 18.0901 31.9028 19.1078 31.7122C19.659 31.6088 20.0844 31.1676 20.173 30.6138L20.3808 29.315C20.4038 29.1716 20.5042 29.0536 20.641 29.0048C21.0856 28.8465 21.5219 28.6654 21.9472 28.4626C22.0779 28.4002 22.2318 28.4119 22.3498 28.4959L23.6587 29.4286C23.9748 29.6537 24.3969 29.6609 24.7204 29.4466C25.6517 28.8298 26.5278 28.1132 27.3242 27.3167C28.0618 26.5791 28.7305 25.7737 29.3152 24.9194C29.6319 24.4566 29.6206 23.8438 29.2917 23.3896L28.5143 22.3161C28.4293 22.1986 28.4168 22.0445 28.4788 21.9134C28.6806 21.4875 28.8605 21.0508 29.0177 20.6057C29.066 20.4691 29.1832 20.3684 29.3261 20.3444L30.9018 20.0798C31.2845 20.0155 31.588 19.7221 31.6653 19.3418C32.0949 17.2329 32.1111 15.0078 31.7129 12.8915ZM24.0112 24.0103C21.2307 26.7739 17.4276 27.822 13.7625 27.1013C13.7039 27.0952 13.6451 27.084 13.5867 27.0662C13.5843 27.0655 13.582 27.0644 13.5796 27.0637C9.43765 26.2705 5.72831 22.5606 4.93549 18.4189C4.93467 18.4163 4.93355 18.4138 4.93274 18.4112C4.91605 18.3555 4.90555 18.2995 4.89942 18.2437C4.60123 16.7571 4.60255 15.2221 4.9033 13.736C4.90955 13.6787 4.92055 13.6212 4.93792 13.564C4.93855 13.562 4.93949 13.56 4.94011 13.5579C6.80382 4.89395 17.7326 1.65698 24.0112 7.98811C25.5899 9.56675 26.604 11.4993 27.0543 13.5326C27.0582 13.544 27.0629 13.5548 27.0663 13.5664C27.086 13.632 27.0976 13.6981 27.1027 13.7638C27.8203 17.356 26.7902 21.2312 24.0112 24.0103Z" fill="#FE9168"/>
</g>
</g>
<defs>
<clipPath id="clip0_1_799">
<rect width="32" height="32" fill="white"/>
</clipPath>
</defs>
</svg>
