<svg width="34" height="33" viewBox="0 0 34 33" fill="none" xmlns="http://www.w3.org/2000/svg">
<g id="paypal 1">
<g id="Group">
<g id="Group_2">
<path id="Vector" d="M26.4507 2.48944C24.9127 0.746625 22.1292 0 18.5684 0H8.23464C7.50682 0 6.88828 0.525938 6.77282 1.2375L2.46989 28.3202C2.38535 28.8544 2.80184 29.337 3.34616 29.337H9.72539L11.3274 19.2514L11.2779 19.569C11.3913 18.8574 12.0078 18.3315 12.7356 18.3315H15.7665C21.7231 18.3315 26.3848 15.9308 27.7477 8.98631C27.7889 8.78006 27.8528 8.38406 27.8528 8.38406C28.2404 5.81419 27.8507 4.07138 26.4507 2.48944Z" fill="#ABAFB8"/>
</g>
</g>
<g id="Group_3">
<g id="Group_4">
<path id="Vector_2" d="M29.4664 9.69995C27.986 16.5371 23.2624 20.1548 15.7656 20.1548H13.0482L11.0193 33H15.4275C16.0646 33 16.6068 32.5401 16.7058 31.9151L16.7574 31.6429L17.7718 25.2677L17.8378 24.9171C17.9367 24.2921 18.479 23.8322 19.114 23.8322H19.9202C25.1304 23.8322 29.2086 21.7326 30.4004 15.6585C30.8787 13.2206 30.6478 11.1767 29.4664 9.69995Z" fill="#ABAFB8"/>
</g>
</g>
</g>
</svg>
