<svg width="130" height="66" viewBox="0 0 130 66" fill="none" xmlns="http://www.w3.org/2000/svg">
<g id="signature" clip-path="url(#clip0_1_904)">
<g id="layer1">
<path id="path4147" fill-rule="evenodd" clip-rule="evenodd" d="M94.4392 0.911705C93.966 0.823382 93.4719 0.860378 93.035 1.14898C92.1258 1.7495 91.9517 2.72772 91.7508 3.45791C91.4039 4.71913 91.5301 5.97913 91.6306 7.10168C91.8319 9.35005 92.6041 11.3924 92.9464 13.3867C93.151 14.5793 93.3315 15.7772 93.4923 16.978C92.8627 18.4713 92.212 19.9552 91.5722 21.4002C90.0985 24.7283 88.4054 27.9792 86.7833 31.2866C85.0591 34.802 83.4807 38.3585 81.6038 41.7191C80.2827 44.0848 79.5133 45.6162 78.1467 47.3383C77.7296 47.864 77.0155 48.6145 76.7168 48.7548C76.418 48.895 76.2141 48.9121 76.0812 48.8657C75.9805 48.8305 75.8687 48.7218 75.731 48.4196C75.5933 48.1175 75.4777 47.6895 75.3176 47.2618C74.6579 45.5001 74.3925 43.5454 74.2897 41.5915C74.2382 40.6111 74.3307 39.6056 74.4268 38.5935C75.283 36.2843 76.1687 33.9826 77.0838 31.6879C78.7059 27.6203 80.5742 23.6249 82.2409 19.5156C83.1233 17.3399 84.2714 15.1545 84.8737 12.7091C84.9993 12.1991 85.2263 11.5811 85.3681 10.9077C85.5099 10.2342 85.5691 9.45969 85.2223 8.71452C84.8157 7.84115 83.9704 7.32764 83.0583 7.26429C81.6932 7.1695 80.6216 8.03868 79.841 8.72873C78.6373 9.79293 78.013 11.2378 77.4128 12.4748C76.498 14.3605 75.8916 16.3597 75.3797 18.3337C74.6374 21.1964 74.2082 24.116 73.8535 27.0103C73.5609 29.3979 73.5258 31.7686 73.3573 34.0855C73.2574 35.4589 73.0744 36.871 72.9341 38.3064C72.4129 39.7182 71.889 41.1292 71.4112 42.5594C71.2531 43.0324 71.1401 43.5059 70.992 43.9806C70.6481 43.0141 70.2189 42.1259 69.9421 41.3207C69.6315 40.417 69.2793 39.6084 69.1504 38.8362C69.0231 38.0739 69.0856 36.0426 69.0856 36.0426C69.1207 35.2335 68.0319 34.947 67.6667 35.6693C67.6667 35.6693 65.8157 39.3268 64.6665 41.1603C64.426 41.544 63.606 42.5995 63.1942 43.1136C63.3193 42.4059 63.9937 40.2854 64.0719 39.7372C64.3091 38.0742 64.8935 36.4101 64.4302 35.7612C64.148 35.3659 63.3843 34.9585 62.9798 35.6568C62.9798 35.6568 61.3994 38.3844 60.6269 39.7857C60.0027 40.918 59.5731 41.7545 58.8142 43.188C59.3947 39.9317 60.387 36.6926 60.9646 33.3013C61.1954 31.9462 62.0541 30.2391 61.5076 28.407C61.4213 28.1179 61.2908 27.7931 61.0641 27.4826C60.8375 27.172 60.4615 26.828 59.9198 26.7982C59.8407 26.7938 59.7738 26.8196 59.6979 26.8233C59.9801 25.72 60.2809 24.6214 60.5047 23.5038C60.7777 22.1404 61.419 20.5279 61.0423 18.794C60.8162 17.7532 60.2837 16.7851 59.1727 16.1444C58.1793 15.5714 57.105 15.8309 56.3295 16.006C54.6286 16.39 53.2206 17.1011 51.9183 17.998C49.6633 19.5512 47.574 21.4102 45.8239 23.5396C44.7784 24.8115 43.9159 26.2001 43.1207 27.6206C42.6928 27.0607 42.2154 26.5376 41.6139 26.1267C39.6586 24.7909 37.2118 24.9358 35.2149 24.8905C32.8386 24.8365 30.4729 25.2399 28.2234 25.8519C24.5767 26.8439 21.1419 28.4541 17.8436 30.1636C14.0307 32.1398 10.8216 34.27 7.38189 36.8272C4.94412 38.6394 1.56954 41.9865 1.27847 42.3341C0.425718 43.3528 1.01718 44.3738 1.96205 43.5102C2.29661 43.2044 5.59524 39.9085 7.84763 38.234C11.2307 35.719 14.8005 33.4353 18.5322 31.5013C21.7941 29.8107 25.1359 28.2516 28.6157 27.3049C30.7687 26.7192 32.997 26.3462 35.181 26.3958C37.2459 26.4427 39.366 26.413 40.769 27.3714C41.3899 27.7956 41.8918 28.4229 42.3281 29.1297C42.0747 29.6253 41.7903 30.1119 41.5513 30.609C40.4052 32.993 39.4918 35.4972 38.8084 38.0488C37.8325 41.6929 37.2538 45.435 36.8973 49.1661C36.6543 51.7086 36.3484 54.4854 36.7608 57.3046C36.8413 57.8548 37.0863 58.5977 37.4175 59.2905C37.5832 59.6369 37.7893 59.9759 38.0939 60.2596C38.3985 60.5432 38.8304 60.7608 39.3076 60.7789C39.7745 60.7965 40.2137 60.6048 40.5191 60.3443C40.8244 60.0838 41.0291 59.7704 41.2003 59.4546C41.5428 58.8231 41.8147 58.1593 41.965 57.7301C43.0527 54.6234 43.888 51.7601 44.4852 48.8098C45.1368 45.591 45.6517 42.2967 45.7228 38.9687C45.773 36.621 45.8987 34.0777 45.1007 31.6616C44.8266 30.8315 44.4559 29.9578 44.0302 29.1166C44.9018 27.4819 45.835 25.8929 46.9819 24.4975C48.6317 22.4903 50.6173 20.7201 52.7681 19.2388C54.0446 18.3595 55.3083 17.7797 56.6591 17.4747C57.3827 17.3113 58.0862 17.2543 58.425 17.4496C58.9372 17.745 59.4031 18.3206 59.5757 19.115C59.8265 20.2693 59.341 21.6726 59.0337 23.2073C58.7284 24.7322 58.3452 26.2446 57.9299 27.7489C57.8122 27.8703 57.6605 27.9674 57.5593 28.0932C57.0183 28.7666 56.5947 29.5204 56.2148 29.9894C54.7334 31.8183 53.6334 33.885 52.597 35.902C51.1462 38.7257 49.8273 41.6573 48.863 44.7173C48.3907 46.2164 47.9368 47.3809 47.7984 48.6884C47.6862 49.7478 48.6065 49.9733 49.2515 49.6141C49.8964 49.2548 50.1687 48.769 50.6722 48.1111C51.7497 46.7029 52.6396 45.1743 53.4366 43.6307C55.0939 40.4212 56.4658 37.0704 57.6545 33.6775C58.2547 31.964 58.8043 30.2268 59.2971 28.472C59.4644 28.3577 59.6258 28.3037 59.7943 28.3034C59.7862 28.2949 59.796 28.2994 59.8369 28.3017C59.8225 28.3009 59.8086 28.3034 59.7943 28.3034C59.8009 28.3104 59.8178 28.3242 59.8529 28.3723C59.931 28.4792 60.0222 28.6782 60.0702 28.8389C60.3975 29.9363 59.7677 31.3887 59.4852 33.0477C58.906 36.4482 57.8293 39.8251 57.2407 43.3695C57.0281 44.6503 56.7111 46.3376 56.6563 46.9404C56.5817 47.7611 57.9688 48.3101 58.3504 47.5803C58.6306 47.0442 60.6767 42.807 61.9407 40.514C62.1164 40.1954 62.2511 39.9723 62.4869 39.5562C62.4251 40.0972 62.3443 40.539 62.2434 41.0248C61.9989 42.2016 61.3836 43.7446 61.3678 44.5223C61.3458 45.6085 62.5181 46.5375 63.4423 45.5781C63.9811 45.0187 65.0021 43.4525 65.9365 41.9616C66.6301 40.855 67.0155 40.0368 67.6549 38.8191C67.6653 38.9035 67.6574 39.0067 67.6705 39.0853C67.8417 40.1103 68.2426 40.9928 68.5242 41.8118C69.0044 43.2089 69.7383 44.3475 69.8986 45.4564C69.985 46.0541 70.0127 46.6629 70.0213 47.275C69.5063 49.091 68.9672 50.9159 68.4209 52.7015C67.7431 54.9175 66.8042 57.1329 66.2586 59.53C65.8747 61.2167 65.3942 62.6731 65.5685 64.389C65.6179 64.8744 66.4504 65.4865 66.9456 64.8722C67.2863 64.4496 68.2976 62.8101 68.8366 61.4789C69.7879 59.1293 70.3684 56.6522 70.7767 54.1941C71.1378 52.0197 71.5488 49.7455 71.5362 47.4432C71.9549 45.9725 72.3545 44.4755 72.8347 43.038C72.859 42.9654 72.8877 42.894 72.9121 42.8215C73.0584 44.4929 73.3106 46.1818 73.9131 47.7908C74.0318 48.1078 74.1517 48.574 74.3664 49.0451C74.5812 49.5163 74.9392 50.0603 75.5874 50.2869C76.2275 50.5108 76.855 50.3518 77.353 50.1181C77.851 49.8844 78.5916 49.1124 79.0984 48.5025C80.621 46.6701 81.699 44.6291 82.913 42.4552C84.8349 39.0138 86.423 35.4317 88.13 31.9512C89.7413 28.666 91.4345 25.2321 92.8934 21.786C93.2083 21.0422 93.5098 20.3 93.8039 19.5556C93.8502 19.9774 93.8975 20.3993 93.9392 20.8216C94.0804 22.2518 94.1545 23.6389 94.2656 25.1385C94.319 25.8605 94.357 26.6488 94.4331 27.3555C92.8059 29.2537 91.1434 31.1153 89.5624 33.1262C88.5182 34.4545 87.834 35.389 86.5627 37.2273C86.2268 37.7131 86.1804 38.2724 86.2403 38.7609C86.3002 39.2493 86.5877 39.8149 86.9374 40.2275C87.3893 40.7606 87.9395 41.1886 88.6573 41.4235C89.7346 41.7759 90.9669 41.9483 92.0783 41.5753C93.1612 41.2119 93.8982 40.4228 94.5311 39.5607C95.306 38.5051 95.4448 37.2998 95.6742 36.2103C96.0099 34.6158 96.1074 33.0355 96.0908 31.5154C96.0773 30.2784 96.1202 29.0355 95.9917 27.8436C96.5239 27.2137 97.0738 26.6074 97.5832 25.951C97.7305 25.7612 97.9524 25.4313 98.1087 25.2263C97.8828 25.7752 97.6136 26.2999 97.4375 26.8746C97.0301 28.2043 96.7634 29.6212 96.7817 31.0543C96.7894 31.6643 96.6778 32.5906 97.2812 33.4082C97.683 33.9528 98.04 34.5004 98.9105 34.3831C99.6173 34.288 100.23 33.7574 100.57 33.3519C100.909 32.9463 101.32 32.5701 101.541 32.3459C102.253 31.6261 103.338 30.3107 104.024 29.5051C103.991 29.8012 103.808 30.5211 103.857 31.03C103.888 31.3598 103.924 31.6673 104.151 31.9792C104.377 32.2911 104.719 32.6042 105.209 32.6968C105.841 32.8161 106.375 32.5289 106.743 32.2563C107.111 31.9838 107.398 31.6866 107.606 31.524C108.725 30.6519 109.625 29.5881 110.465 28.56C110.995 27.9108 111.405 27.2387 111.786 26.6483C112.003 26.923 112.24 27.2403 112.296 27.3664C112.563 27.9654 112.577 28.801 112.713 29.7421C112.804 30.3666 112.83 30.9683 112.908 31.584C112.595 31.9746 112.272 32.3663 111.974 32.7491C111.053 33.9315 110.204 35.1855 109.476 36.5105C108.539 38.2169 107.587 40.0111 107.045 41.9881C106.587 43.6628 105.881 45.6504 106.434 47.6515C106.719 48.6849 107.371 49.7594 108.48 50.2561C109.345 50.6435 110.274 50.4773 111.006 50.0974C112.082 49.5394 112.657 48.4991 113.086 47.6366C113.779 46.2434 113.917 44.7408 114.116 43.4074C114.572 40.3569 114.753 37.2582 114.687 34.1793C114.671 33.4502 114.543 32.761 114.464 32.0496C115.048 31.3545 115.943 30.5932 116.618 30.065C118.316 28.7351 119.988 27.7932 122.033 27.0926C123.499 26.5906 124.978 26.1229 126.24 26.357C126.578 26.4195 126.953 26.52 127.218 26.65C128.187 27.0889 127.15 28.2745 126.848 28.6234C126.268 29.2597 125.616 29.7065 124.868 30.2816C123.772 31.1236 122.797 31.799 121.636 32.3248C120.762 32.7208 120.297 33.0029 118.877 33.1389C117.815 33.2406 117.701 34.1703 118.88 34.2222C120.314 34.2855 120.698 34.2143 122.264 33.6222C123.734 33.0667 124.947 32.2633 125.895 31.5259C126.637 30.9558 127.511 30.3659 128.118 29.5931C128.448 29.172 128.697 28.6767 128.854 28.1644C129.015 27.6415 129.265 27.1973 129.05 26.5351C128.847 25.9082 128.348 25.5282 127.878 25.2975C127.408 25.0668 126.921 24.9523 126.514 24.8768C124.729 24.5459 123.016 25.1657 121.548 25.6682C119.348 26.4219 117.534 27.4386 115.695 28.8782C115.268 29.2129 114.629 29.7176 114.259 30.0972C114.232 29.9107 114.226 29.7116 114.199 29.5262C114.085 28.7399 114.109 27.7477 113.667 26.7528C113.455 26.2765 113.117 25.8699 112.819 25.5176C112.521 25.1653 112.26 24.8954 112.26 24.8954C111.921 24.5476 111.348 24.6074 111.089 25.0174C111.089 25.0174 109.91 26.8654 109.304 27.6059C108.478 28.6178 107.643 29.5889 106.686 30.335C106.35 30.5968 106.077 30.8777 105.851 31.0447C105.626 31.2117 105.532 31.2259 105.487 31.2173C105.503 31.2203 105.445 31.2041 105.363 31.0914C105.281 30.9787 105.2 30.7939 105.165 30.6491C105.071 30.2635 105.382 29.5963 105.635 28.7017C106.014 27.3607 107.149 24.5399 107.149 24.5399C107.506 23.6565 106.237 23.0613 105.791 23.9033C105.791 23.9033 104.125 27.0248 103.178 28.3066C102.407 29.3512 101.448 30.3023 100.476 31.2852C100.086 31.68 99.7789 31.9786 99.5294 32.2765C99.1052 32.7245 98.866 32.7634 98.4874 32.5126C98.3206 32.2866 98.2908 31.7233 98.2821 31.0348C98.2665 29.8029 98.4987 28.5346 98.8719 27.3167C99.5207 25.1991 100.501 23.1651 101.621 21.1224C102.249 19.9784 103.2 18.467 104.172 16.9773C105.119 16.5615 106.097 16.1743 107.076 15.7634C108.839 15.0239 110.498 14.3989 112.314 13.8015C114.224 13.1737 116.144 12.5461 118.069 11.9522C118.858 11.7089 118.796 10.7964 117.975 10.8C117.883 10.791 117.789 10.7992 117.7 10.8243C117.7 10.8243 113.959 11.7534 111.937 12.4181C110.084 13.0275 108.298 13.619 106.497 14.3743C106.228 14.4874 105.952 14.5993 105.679 14.7113C106.925 12.8658 107.955 11.3959 107.964 11.3832L107.974 11.3686V11.3678C108.5 10.5466 107.306 9.72797 106.735 10.5186L106.734 10.5193C106.734 10.5193 104.374 13.4826 103.229 15.2071C103.08 15.431 102.929 15.684 102.771 15.957C102.017 16.3125 101.272 16.7042 100.552 17.1605C99.765 17.6592 99.0082 18.2555 98.3652 18.9765C97.6499 19.7786 96.9776 21.0062 96.9776 21.0062C96.4801 21.8878 97.8868 22.5411 98.3682 21.6506C98.3682 21.6506 99.0676 20.4475 99.4837 19.9809C100.003 19.399 100.639 18.8905 101.324 18.4535C100.336 20.0651 98.8835 22.1772 96.3986 25.0263C96.1927 25.2624 95.9798 25.5118 95.7824 25.7561C95.763 25.5433 95.7335 25.3239 95.7178 25.1122C95.6108 23.6665 95.4664 22.1331 95.3174 20.6244C95.192 19.3542 95.03 18.0895 94.8454 16.8279C95.3754 15.4018 95.894 13.9601 96.4261 12.4769C96.9951 10.8912 97.4125 9.59634 97.7681 7.84468C97.9623 6.88791 97.9123 5.91614 97.889 5.24476C97.8669 4.60809 97.2657 4.59631 97.2197 5.23632C97.1561 6.121 97.0669 6.5567 96.9346 7.21049C96.6139 8.79054 96.0849 10.2571 95.506 11.8706C95.1874 12.7587 94.8433 13.6535 94.4875 14.5492C94.4082 14.0672 94.3286 13.5851 94.2458 13.103C93.8709 10.918 93.3022 8.9427 93.1253 6.96726C93.025 5.84729 92.9475 4.76778 93.1976 3.85859C93.3835 3.18277 93.605 2.70337 93.9101 2.5018C94.1421 2.3486 94.6555 2.2522 94.9133 2.31825C95.242 2.40248 95.4723 2.55612 95.7255 2.8725C96.0392 3.26461 96.1922 3.45597 96.4222 3.75039C96.8042 4.23926 97.3312 4.00188 97.1289 3.4951C96.9469 3.03922 96.8684 2.73925 96.5609 2.31186C96.0989 1.66964 95.698 1.38427 95.2508 1.17838C94.999 1.06245 94.7229 0.964697 94.4391 0.911703L94.4392 0.911705ZM82.9545 8.76621C83.2663 8.78788 83.7492 9.1098 83.8618 9.35174C84.0095 9.66906 84.0107 10.0724 83.9003 10.5964C83.79 11.1204 83.5712 11.7192 83.4164 12.3476C82.8721 14.5577 81.7699 16.6825 80.8507 18.9487C79.2037 23.0094 77.5793 26.6157 75.9356 30.7375C75.6789 31.3811 74.9059 33.4236 74.6513 34.0689C74.7678 32.0853 75.1085 29.1078 75.343 27.1941C75.6948 24.3242 76.1174 21.4709 76.8325 18.7132C77.3336 16.7807 77.9162 14.8776 78.7621 13.1339C79.3758 11.8692 79.9567 10.634 80.8338 9.85861C81.5324 9.24092 82.3527 8.72442 82.9545 8.76621ZM94.6108 29.4865C94.6689 30.1587 94.742 30.8339 94.7492 31.4956C94.7658 33.0144 94.7742 34.5029 94.4839 35.8819C94.2593 36.9486 93.9987 37.9726 93.471 38.6915C92.9894 39.3474 92.1722 40.0451 91.473 40.2797C90.7259 40.5305 89.987 40.4934 89.2155 40.282C88.7048 40.1421 88.3619 39.9927 88.0198 39.7137C87.7773 39.5159 87.4968 39.2743 87.4538 38.9637C87.4107 38.6523 87.7436 38.1605 87.7959 38.0849C89.0592 36.258 89.7105 35.3687 90.7406 34.0584C91.9624 32.5044 93.2852 31.003 94.6108 29.4865ZM113.133 33.7106C113.141 33.8756 113.183 34.048 113.186 34.2124C113.251 37.2102 113.074 40.2232 112.632 43.1837C112.425 44.5657 112.272 45.9007 111.743 46.964C111.352 47.7484 110.871 48.4722 110.317 48.7596C109.935 48.9574 109.372 49.006 109.092 48.8808C108.578 48.6505 108.069 47.9343 107.88 47.2491C107.492 45.846 108.019 44.118 108.493 42.3862C108.975 40.6226 109.862 38.9281 110.791 37.2373C111.468 36.0057 112.264 34.8295 113.133 33.7106ZM56.5778 32.1124C56.4586 32.4658 56.3617 32.826 56.2384 33.1779C55.0671 36.5215 53.721 39.8079 52.1044 42.9386C51.4856 44.137 50.6344 45.7047 49.8793 46.7943C49.9948 46.2648 50.1154 45.6998 50.294 45.1708C51.2875 42.2275 52.5039 39.3682 53.9305 36.5918C54.7361 35.0239 55.6044 33.5172 56.5778 32.1124ZM43.1261 30.8386C43.3062 31.2768 43.5289 31.6885 43.6763 32.1347C44.3578 34.1982 44.2728 36.5659 44.2221 38.9363C44.1538 42.1296 43.6572 45.3363 43.0148 48.51C42.4113 51.4911 41.6521 54.1969 40.6192 57.0648C40.4028 57.6655 40.1256 58.2871 39.8826 58.7351C39.7611 58.959 39.6351 59.1219 39.5469 59.1972C39.4586 59.2725 39.4413 59.2766 39.3635 59.2736C39.2656 59.2699 39.217 59.2508 39.115 59.1559C39.013 59.061 38.8857 58.8795 38.7709 58.6394C38.5412 58.1591 38.2957 57.4913 38.2059 56.8994C37.8561 54.5941 38.1356 51.9873 38.3915 49.3097C38.7424 45.6374 39.3102 41.9772 40.2579 38.4388C40.918 35.9738 41.8 33.558 42.9031 31.2633C42.9726 31.1187 43.0557 30.9828 43.1261 30.8386Z" fill="#323232"/>
</g>
</g>
<defs>
<clipPath id="clip0_1_904">
<rect width="130" height="66" fill="white"/>
</clipPath>
</defs>
</svg>
