<svg width="1920" height="50" viewBox="0 0 1920 50" fill="none" xmlns="http://www.w3.org/2000/svg">
<rect width="1920" height="50" fill="#1B0522"/>
<path d="M1145.5 23.8333L1149 27.3333L1152.5 23.8333" stroke="white" stroke-linecap="square"/>
<path d="M1064.64 30C1064.55 30 1064.48 29.968 1064.42 29.904C1064.35 29.84 1064.32 29.7653 1064.32 29.68C1064.32 29.5947 1064.33 29.536 1064.34 29.504L1068.3 19.152C1068.39 18.9173 1068.56 18.8 1068.82 18.8H1069.9C1070.16 18.8 1070.33 18.9173 1070.42 19.152L1074.37 29.504L1074.4 29.68C1074.4 29.7653 1074.37 29.84 1074.3 29.904C1074.24 29.968 1074.17 30 1074.08 30H1073.26C1073.15 30 1073.06 29.9733 1072.99 29.92C1072.93 29.856 1072.89 29.792 1072.86 29.728L1071.98 27.456H1066.74L1065.86 29.728C1065.83 29.792 1065.79 29.856 1065.71 29.92C1065.65 29.9733 1065.56 30 1065.46 30H1064.64ZM1071.52 26.08L1069.36 20.4L1067.2 26.08H1071.52ZM1084.09 21.68C1084.18 21.68 1084.25 21.712 1084.32 21.776C1084.38 21.8293 1084.41 21.8987 1084.41 21.984V29.648C1084.41 29.7547 1084.38 29.84 1084.32 29.904C1084.25 29.968 1084.17 30 1084.08 30H1083.29C1083.19 30 1083.1 29.968 1083.04 29.904C1082.97 29.84 1082.94 29.7547 1082.94 29.648V24.384L1080.89 28.256C1080.82 28.3947 1080.75 28.5013 1080.67 28.576C1080.61 28.64 1080.51 28.672 1080.37 28.672H1079.95C1079.82 28.672 1079.72 28.64 1079.65 28.576C1079.58 28.512 1079.51 28.4053 1079.42 28.256L1077.39 24.48V29.648C1077.39 29.7547 1077.36 29.84 1077.29 29.904C1077.23 29.968 1077.15 30 1077.04 30H1076.25C1076.15 30 1076.06 29.968 1076 29.904C1075.93 29.84 1075.9 29.7547 1075.9 29.648V21.984C1075.9 21.9093 1075.93 21.84 1076 21.776C1076.06 21.712 1076.14 21.68 1076.22 21.68H1077.04C1077.2 21.68 1077.33 21.7653 1077.44 21.936L1080.16 27.024L1082.89 21.936C1082.98 21.7653 1083.11 21.68 1083.29 21.68H1084.09ZM1090.14 30.16C1089.04 30.16 1088.16 29.824 1087.5 29.152C1086.85 28.4693 1086.49 27.5413 1086.43 26.368L1086.41 25.824L1086.43 25.296C1086.5 24.144 1086.86 23.2267 1087.51 22.544C1088.17 21.8613 1089.04 21.52 1090.12 21.52C1091.31 21.52 1092.22 21.8987 1092.87 22.656C1093.52 23.4027 1093.85 24.416 1093.85 25.696V25.968C1093.85 26.0747 1093.81 26.1653 1093.74 26.24C1093.67 26.304 1093.59 26.336 1093.48 26.336H1087.95V26.48C1087.98 27.1733 1088.19 27.7653 1088.57 28.256C1088.96 28.736 1089.48 28.976 1090.12 28.976C1090.61 28.976 1091.01 28.88 1091.32 28.688C1091.64 28.4853 1091.88 28.2773 1092.03 28.064C1092.12 27.936 1092.19 27.8613 1092.23 27.84C1092.29 27.808 1092.38 27.792 1092.51 27.792H1093.29C1093.39 27.792 1093.47 27.8187 1093.53 27.872C1093.59 27.9253 1093.62 28 1093.62 28.096C1093.62 28.3307 1093.48 28.6133 1093.18 28.944C1092.89 29.2747 1092.48 29.5627 1091.95 29.808C1091.42 30.0427 1090.82 30.16 1090.14 30.16ZM1092.33 25.232V25.184C1092.33 24.448 1092.13 23.8507 1091.72 23.392C1091.33 22.9227 1090.79 22.688 1090.12 22.688C1089.45 22.688 1088.92 22.9227 1088.52 23.392C1088.14 23.8507 1087.95 24.448 1087.95 25.184V25.232H1092.33ZM1096.15 33.04C1096.04 33.04 1095.95 33.0027 1095.87 32.928C1095.81 32.864 1095.78 32.7787 1095.78 32.672V22.048C1095.78 21.9413 1095.81 21.856 1095.87 21.792C1095.95 21.7173 1096.04 21.68 1096.15 21.68H1096.88C1096.99 21.68 1097.07 21.7173 1097.14 21.792C1097.21 21.856 1097.25 21.9413 1097.25 22.048V22.752C1097.85 21.9307 1098.72 21.52 1099.87 21.52C1100.99 21.52 1101.83 21.872 1102.39 22.576C1102.95 23.28 1103.26 24.1867 1103.3 25.296C1103.31 25.4133 1103.31 25.5947 1103.31 25.84C1103.31 26.0853 1103.31 26.2667 1103.3 26.384C1103.26 27.4827 1102.95 28.3893 1102.39 29.104C1101.82 29.808 1100.98 30.16 1099.87 30.16C1098.76 30.16 1097.9 29.76 1097.28 28.96V32.672C1097.28 32.7787 1097.25 32.864 1097.19 32.928C1097.12 33.0027 1097.04 33.04 1096.93 33.04H1096.15ZM1099.54 28.864C1100.3 28.864 1100.84 28.6293 1101.19 28.16C1101.54 27.6907 1101.73 27.072 1101.76 26.304C1101.77 26.1973 1101.78 26.0427 1101.78 25.84C1101.78 23.824 1101.03 22.816 1099.54 22.816C1098.8 22.816 1098.25 23.0613 1097.87 23.552C1097.51 24.032 1097.31 24.608 1097.28 25.28L1097.27 25.888L1097.28 26.512C1097.3 27.1413 1097.51 27.6907 1097.89 28.16C1098.27 28.6293 1098.82 28.864 1099.54 28.864ZM1112.37 21.68C1112.45 21.68 1112.53 21.712 1112.59 21.776C1112.66 21.84 1112.7 21.9147 1112.7 22V29.632C1112.7 29.7387 1112.66 29.8293 1112.59 29.904C1112.53 29.968 1112.44 30 1112.33 30H1111.58C1111.47 30 1111.38 29.968 1111.31 29.904C1111.25 29.8293 1111.21 29.7387 1111.21 29.632V23.824L1106.78 29.76C1106.66 29.92 1106.53 30 1106.37 30H1105.65C1105.55 30 1105.46 29.968 1105.39 29.904C1105.33 29.8293 1105.29 29.7493 1105.29 29.664V22.048C1105.29 21.9413 1105.33 21.856 1105.39 21.792C1105.46 21.7173 1105.55 21.68 1105.66 21.68H1106.43C1106.54 21.68 1106.62 21.7173 1106.69 21.792C1106.76 21.856 1106.8 21.9413 1106.8 22.048V27.824L1111.21 21.92C1111.33 21.76 1111.47 21.68 1111.63 21.68H1112.37ZM1121.99 29.536C1122.04 29.6 1122.07 29.6693 1122.07 29.744C1122.07 29.8187 1122.04 29.8827 1121.97 29.936C1121.92 29.9787 1121.84 30 1121.75 30H1120.77C1120.6 30 1120.46 29.92 1120.36 29.76L1118.04 26.416H1116.53V29.632C1116.53 29.7387 1116.49 29.8293 1116.42 29.904C1116.36 29.968 1116.27 30 1116.16 30H1115.41C1115.3 30 1115.21 29.968 1115.14 29.904C1115.08 29.8293 1115.04 29.7387 1115.04 29.632V22.048C1115.04 21.9413 1115.08 21.856 1115.14 21.792C1115.21 21.7173 1115.3 21.68 1115.41 21.68H1116.16C1116.27 21.68 1116.36 21.7173 1116.42 21.792C1116.49 21.856 1116.53 21.9413 1116.53 22.048V25.12H1118L1120.15 21.92C1120.28 21.76 1120.42 21.68 1120.58 21.68H1121.41C1121.51 21.68 1121.59 21.7067 1121.65 21.76C1121.72 21.8027 1121.75 21.8613 1121.75 21.936C1121.75 21.9893 1121.72 22.0533 1121.67 22.128L1119.28 25.664L1121.99 29.536ZM1125.94 30.16C1125.42 30.16 1124.93 30.0533 1124.49 29.84C1124.04 29.6267 1123.68 29.3387 1123.41 28.976C1123.16 28.6027 1123.03 28.192 1123.03 27.744C1123.03 27.04 1123.32 26.464 1123.89 26.016C1124.48 25.5573 1125.27 25.2587 1126.26 25.12L1128.65 24.784V24.32C1128.65 23.232 1128.02 22.688 1126.77 22.688C1126.3 22.688 1125.92 22.7893 1125.62 22.992C1125.32 23.184 1125.1 23.4133 1124.95 23.68C1124.92 23.776 1124.87 23.8453 1124.82 23.888C1124.78 23.9307 1124.71 23.952 1124.63 23.952H1123.94C1123.85 23.952 1123.76 23.92 1123.69 23.856C1123.62 23.7813 1123.59 23.696 1123.59 23.6C1123.6 23.344 1123.72 23.056 1123.94 22.736C1124.18 22.4053 1124.53 22.1227 1125.01 21.888C1125.49 21.6427 1126.09 21.52 1126.79 21.52C1127.98 21.52 1128.84 21.8027 1129.37 22.368C1129.89 22.9227 1130.15 23.616 1130.15 24.448V29.632C1130.15 29.7387 1130.11 29.8293 1130.04 29.904C1129.97 29.968 1129.89 30 1129.78 30H1129.05C1128.94 30 1128.85 29.968 1128.77 29.904C1128.71 29.8293 1128.68 29.7387 1128.68 29.632V28.944C1128.44 29.2853 1128.1 29.5733 1127.65 29.808C1127.21 30.0427 1126.63 30.16 1125.94 30.16ZM1126.28 28.96C1126.97 28.96 1127.54 28.736 1127.97 28.288C1128.42 27.8293 1128.65 27.1733 1128.65 26.32V25.872L1126.79 26.144C1126.03 26.2507 1125.46 26.432 1125.08 26.688C1124.69 26.9333 1124.5 27.248 1124.5 27.632C1124.5 28.0587 1124.68 28.3893 1125.03 28.624C1125.38 28.848 1125.8 28.96 1126.28 28.96Z" fill="white"/>
<path d="M1052.05 16.4828H1029.95C1028.87 16.4828 1028 17.3545 1028 18.43V31.5701C1028 32.6455 1028.87 33.5173 1029.95 33.5173H1052.05C1053.13 33.5173 1054 32.6455 1054 31.5701V18.43C1054 17.3545 1053.13 16.4828 1052.05 16.4828Z" fill="#F5F5F5"/>
<path d="M1028.11 17.7931H1053.89C1053.63 17.0305 1052.9 16.4828 1052.05 16.4828H1029.95C1029.09 16.4828 1028.37 17.0305 1028.11 17.7931Z" fill="#FF4B55"/>
<path d="M1054 21.7241H1028V23.0344H1054V21.7241Z" fill="#FF4B55"/>
<path d="M1054 19.1033H1028V20.4136H1054V19.1033Z" fill="#FF4B55"/>
<path d="M1028 25.2069C1028 25.4544 1028.2 25.6552 1028.45 25.6552H1054V24.3448H1028V25.2069Z" fill="#FF4B55"/>
<path d="M1054 29.5865H1028V30.8969H1054V29.5865Z" fill="#FF4B55"/>
<path d="M1053.89 32.2068H1028.11C1028.37 32.9694 1029.09 33.5172 1029.95 33.5172H1052.05C1052.9 33.5172 1053.63 32.9694 1053.89 32.2068Z" fill="#FF4B55"/>
<path d="M1054 26.9657H1028V28.276H1054V26.9657Z" fill="#FF4B55"/>
<path d="M1028.45 25.6552H1039.66C1039.9 25.6552 1040.1 25.4545 1040.1 25.2069V16.931C1040.1 16.6834 1039.9 16.4827 1039.66 16.4827H1029.95C1028.87 16.4828 1028 17.3545 1028 18.43V25.2069C1028 25.4545 1028.2 25.6552 1028.45 25.6552Z" fill="#41479B"/>
<path d="M1029.26 17.5118L1029.36 17.8094L1029.67 17.8117C1029.71 17.8121 1029.73 17.8639 1029.7 17.888L1029.44 18.0743L1029.54 18.3734C1029.55 18.4121 1029.51 18.4442 1029.47 18.4205L1029.22 18.2382L1028.96 18.4206C1028.93 18.4442 1028.89 18.4121 1028.9 18.3734L1028.99 18.0744L1028.74 17.8881C1028.71 17.8639 1028.73 17.8121 1028.77 17.8118L1029.08 17.8094L1029.18 17.5118C1029.19 17.4732 1029.25 17.4732 1029.26 17.5118Z" fill="#F5F5F5"/>
<path d="M1029.26 19.0683L1029.36 19.3659L1029.67 19.3683C1029.71 19.3686 1029.73 19.4204 1029.7 19.4445L1029.44 19.6309L1029.54 19.93C1029.55 19.9687 1029.51 20.0007 1029.47 19.9771L1029.22 19.7947L1028.96 19.9771C1028.93 20.0007 1028.89 19.9687 1028.9 19.93L1028.99 19.631L1028.74 19.4446C1028.71 19.4204 1028.73 19.3687 1028.77 19.3683L1029.08 19.3659L1029.18 19.0683C1029.19 19.0298 1029.25 19.0298 1029.26 19.0683Z" fill="#F5F5F5"/>
<path d="M1029.26 20.625L1029.36 20.9226L1029.67 20.925C1029.71 20.9254 1029.73 20.9771 1029.7 21.0013L1029.44 21.1876L1029.54 21.4867C1029.55 21.5254 1029.51 21.5575 1029.47 21.5338L1029.22 21.3515L1028.96 21.5339C1028.93 21.5575 1028.89 21.5255 1028.9 21.4867L1028.99 21.1877L1028.74 21.0013C1028.71 20.9771 1028.73 20.9254 1028.77 20.925L1029.08 20.9227L1029.18 20.6251C1029.19 20.5865 1029.25 20.5865 1029.26 20.625Z" fill="#F5F5F5"/>
<path d="M1029.26 22.1816L1029.36 22.4792L1029.67 22.4816C1029.71 22.482 1029.73 22.5338 1029.7 22.5579L1029.44 22.7442L1029.54 23.0433C1029.55 23.082 1029.51 23.1141 1029.47 23.0904L1029.22 22.9081L1028.96 23.0905C1028.93 23.1141 1028.89 23.082 1028.9 23.0433L1028.99 22.7443L1028.74 22.5579C1028.71 22.5339 1028.73 22.482 1028.77 22.4817L1029.08 22.4793L1029.18 22.1817C1029.19 22.1431 1029.25 22.1431 1029.26 22.1816Z" fill="#F5F5F5"/>
<path d="M1029.26 23.7383L1029.36 24.0359L1029.67 24.0383C1029.71 24.0386 1029.73 24.0904 1029.7 24.1145L1029.44 24.3009L1029.54 24.6C1029.55 24.6387 1029.51 24.6707 1029.47 24.6471L1029.22 24.4647L1028.96 24.6471C1028.93 24.6707 1028.89 24.6387 1028.9 24.6L1028.99 24.301L1028.74 24.1146C1028.71 24.0904 1028.73 24.0387 1028.77 24.0383L1029.08 24.0359L1029.18 23.7384C1029.19 23.6998 1029.25 23.6998 1029.26 23.7383Z" fill="#F5F5F5"/>
<path d="M1030.47 18.2748L1030.57 18.5724L1030.88 18.5748C1030.92 18.5752 1030.94 18.627 1030.9 18.6511L1030.65 18.8375L1030.75 19.1365C1030.76 19.1752 1030.71 19.2073 1030.68 19.1836L1030.43 19.0012L1030.17 19.1836C1030.14 19.2072 1030.09 19.1752 1030.11 19.1365L1030.2 18.8375L1029.95 18.6511C1029.92 18.6269 1029.93 18.5752 1029.97 18.5748L1030.29 18.5724L1030.39 18.2748C1030.4 18.2363 1030.45 18.2363 1030.47 18.2748Z" fill="#F5F5F5"/>
<path d="M1030.47 19.8316L1030.57 20.1292L1030.88 20.1315C1030.92 20.1319 1030.94 20.1837 1030.9 20.2078L1030.65 20.3942L1030.75 20.6932C1030.76 20.7319 1030.71 20.764 1030.68 20.7404L1030.43 20.558L1030.17 20.7404C1030.14 20.764 1030.09 20.732 1030.11 20.6932L1030.2 20.3942L1029.95 20.2078C1029.92 20.1837 1029.93 20.1319 1029.97 20.1315L1030.29 20.1292L1030.39 19.8316C1030.4 19.793 1030.45 19.793 1030.47 19.8316Z" fill="#F5F5F5"/>
<path d="M1030.47 21.3882L1030.57 21.6858L1030.88 21.6882C1030.92 21.6885 1030.94 21.7403 1030.9 21.7644L1030.65 21.9508L1030.75 22.2499C1030.76 22.2885 1030.71 22.3206 1030.68 22.297L1030.43 22.1146L1030.17 22.297C1030.14 22.3206 1030.09 22.2885 1030.11 22.2499L1030.2 21.9508L1029.95 21.7644C1029.92 21.7403 1029.93 21.6885 1029.97 21.6882L1030.29 21.6858L1030.39 21.3882C1030.4 21.3496 1030.45 21.3496 1030.47 21.3882Z" fill="#F5F5F5"/>
<path d="M1030.47 22.9448L1030.57 23.2424L1030.88 23.2448C1030.92 23.2451 1030.94 23.2969 1030.9 23.3211L1030.65 23.5074L1030.75 23.8065C1030.76 23.8452 1030.71 23.8773 1030.68 23.8536L1030.43 23.6712L1030.17 23.8536C1030.14 23.8773 1030.09 23.8452 1030.11 23.8065L1030.2 23.5074L1029.95 23.3211C1029.92 23.2969 1029.93 23.2451 1029.97 23.2448L1030.29 23.2424L1030.39 22.9448C1030.4 22.9063 1030.45 22.9063 1030.47 22.9448Z" fill="#F5F5F5"/>
<path d="M1031.68 17.5117L1031.77 17.8092L1032.09 17.8116C1032.13 17.812 1032.15 17.8638 1032.11 17.8879L1031.86 18.0742L1031.96 18.3733C1031.97 18.412 1031.92 18.4441 1031.89 18.4204L1031.64 18.238L1031.38 18.4204C1031.35 18.4441 1031.3 18.412 1031.32 18.3733L1031.41 18.0742L1031.16 17.8879C1031.12 17.8637 1031.14 17.8119 1031.18 17.8116L1031.5 17.8092L1031.6 17.5117C1031.61 17.4731 1031.66 17.4731 1031.68 17.5117Z" fill="#F5F5F5"/>
<path d="M1031.68 19.0683L1031.77 19.3659L1032.09 19.3683C1032.13 19.3686 1032.15 19.4204 1032.11 19.4445L1031.86 19.6309L1031.96 19.93C1031.97 19.9686 1031.92 20.0007 1031.89 19.9771L1031.64 19.7947L1031.38 19.9771C1031.35 20.0007 1031.3 19.9686 1031.32 19.93L1031.41 19.6309L1031.16 19.4445C1031.12 19.4204 1031.14 19.3686 1031.18 19.3683L1031.5 19.3659L1031.6 19.0683C1031.61 19.0298 1031.66 19.0298 1031.68 19.0683Z" fill="#F5F5F5"/>
<path d="M1031.68 20.625L1031.77 20.9226L1032.09 20.925C1032.13 20.9254 1032.15 20.9771 1032.11 21.0013L1031.86 21.1876L1031.96 21.4867C1031.97 21.5254 1031.92 21.5575 1031.89 21.5338L1031.64 21.3514L1031.38 21.5338C1031.35 21.5574 1031.3 21.5254 1031.32 21.4867L1031.41 21.1876L1031.16 21.0013C1031.12 20.9771 1031.14 20.9254 1031.18 20.925L1031.5 20.9226L1031.6 20.625C1031.61 20.5865 1031.66 20.5865 1031.68 20.625Z" fill="#F5F5F5"/>
<path d="M1031.68 22.1816L1031.77 22.4792L1032.09 22.4816C1032.13 22.482 1032.15 22.5338 1032.11 22.5579L1031.86 22.7443L1031.96 23.0433C1031.97 23.082 1031.92 23.1141 1031.89 23.0904L1031.64 22.908L1031.38 23.0904C1031.35 23.114 1031.3 23.082 1031.32 23.0433L1031.41 22.7443L1031.16 22.5579C1031.12 22.5338 1031.14 22.482 1031.18 22.4816L1031.5 22.4792L1031.6 22.1816C1031.61 22.1431 1031.66 22.1431 1031.68 22.1816Z" fill="#F5F5F5"/>
<path d="M1031.68 23.7383L1031.77 24.0359L1032.09 24.0382C1032.13 24.0386 1032.15 24.0903 1032.11 24.1145L1031.86 24.3009L1031.96 24.5999C1031.97 24.6386 1031.92 24.6707 1031.89 24.6471L1031.64 24.4647L1031.38 24.6471C1031.35 24.6707 1031.3 24.6386 1031.32 24.5999L1031.41 24.3009L1031.16 24.1145C1031.12 24.0903 1031.14 24.0386 1031.18 24.0382L1031.5 24.0359L1031.6 23.7383C1031.61 23.6998 1031.66 23.6998 1031.68 23.7383Z" fill="#F5F5F5"/>
<path d="M1032.88 18.2748L1032.98 18.5724L1033.3 18.5748C1033.34 18.5752 1033.35 18.627 1033.32 18.6511L1033.07 18.8375L1033.16 19.1365C1033.18 19.1752 1033.13 19.2073 1033.1 19.1836L1032.84 19.0012L1032.59 19.1836C1032.56 19.2072 1032.51 19.1752 1032.52 19.1365L1032.62 18.8375L1032.37 18.6511C1032.33 18.6269 1032.35 18.5752 1032.39 18.5748L1032.7 18.5724L1032.8 18.2748C1032.82 18.2363 1032.87 18.2363 1032.88 18.2748Z" fill="#F5F5F5"/>
<path d="M1032.88 19.8316L1032.98 20.1292L1033.3 20.1315C1033.34 20.1319 1033.35 20.1837 1033.32 20.2078L1033.07 20.3942L1033.16 20.6932C1033.18 20.7319 1033.13 20.764 1033.1 20.7404L1032.84 20.558L1032.59 20.7404C1032.56 20.764 1032.51 20.732 1032.52 20.6932L1032.62 20.3942L1032.37 20.2078C1032.33 20.1837 1032.35 20.1319 1032.39 20.1315L1032.7 20.1292L1032.8 19.8316C1032.82 19.793 1032.87 19.793 1032.88 19.8316Z" fill="#F5F5F5"/>
<path d="M1032.88 21.3882L1032.98 21.6858L1033.3 21.6882C1033.34 21.6885 1033.35 21.7403 1033.32 21.7644L1033.07 21.9508L1033.16 22.2499C1033.18 22.2885 1033.13 22.3206 1033.1 22.297L1032.84 22.1146L1032.59 22.297C1032.56 22.3206 1032.51 22.2885 1032.52 22.2499L1032.62 21.9508L1032.37 21.7644C1032.33 21.7403 1032.35 21.6885 1032.39 21.6882L1032.7 21.6858L1032.8 21.3882C1032.82 21.3496 1032.87 21.3496 1032.88 21.3882Z" fill="#F5F5F5"/>
<path d="M1032.88 22.9448L1032.98 23.2424L1033.3 23.2448C1033.34 23.2451 1033.35 23.2969 1033.32 23.3211L1033.07 23.5074L1033.16 23.8065C1033.18 23.8452 1033.13 23.8773 1033.1 23.8536L1032.84 23.6712L1032.59 23.8536C1032.56 23.8773 1032.51 23.8452 1032.52 23.8065L1032.62 23.5074L1032.37 23.3211C1032.33 23.2969 1032.35 23.2451 1032.39 23.2448L1032.7 23.2424L1032.8 22.9448C1032.82 22.9063 1032.87 22.9063 1032.88 22.9448Z" fill="#F5F5F5"/>
<path d="M1034.09 17.5117L1034.19 17.8092L1034.5 17.8116C1034.55 17.812 1034.56 17.8638 1034.53 17.8879L1034.28 18.0742L1034.37 18.3733C1034.38 18.412 1034.34 18.4441 1034.31 18.4204L1034.05 18.238L1033.8 18.4204C1033.76 18.4441 1033.72 18.412 1033.73 18.3733L1033.83 18.0743L1033.57 17.8879C1033.54 17.8638 1033.56 17.812 1033.6 17.8117L1033.91 17.8093L1034.01 17.5117C1034.02 17.4731 1034.08 17.4731 1034.09 17.5117Z" fill="#F5F5F5"/>
<path d="M1034.09 19.0683L1034.19 19.3659L1034.5 19.3683C1034.55 19.3686 1034.56 19.4204 1034.53 19.4445L1034.28 19.6309L1034.37 19.93C1034.38 19.9686 1034.34 20.0007 1034.31 19.9771L1034.05 19.7947L1033.8 19.9771C1033.76 20.0007 1033.72 19.9686 1033.73 19.93L1033.83 19.6309L1033.57 19.4445C1033.54 19.4204 1033.56 19.3686 1033.6 19.3683L1033.91 19.3659L1034.01 19.0683C1034.02 19.0298 1034.08 19.0298 1034.09 19.0683Z" fill="#F5F5F5"/>
<path d="M1034.09 20.625L1034.19 20.9226L1034.5 20.925C1034.55 20.9253 1034.56 20.9771 1034.53 21.0013L1034.28 21.1876L1034.37 21.4867C1034.38 21.5254 1034.34 21.5575 1034.31 21.5338L1034.05 21.3513L1033.8 21.5337C1033.76 21.5574 1033.72 21.5253 1033.73 21.4866L1033.83 21.1876L1033.57 21.0012C1033.54 20.977 1033.56 20.9253 1033.6 20.9249L1033.91 20.9225L1034.01 20.625C1034.02 20.5865 1034.08 20.5865 1034.09 20.625Z" fill="#F5F5F5"/>
<path d="M1034.09 22.1816L1034.19 22.4792L1034.5 22.4816C1034.55 22.482 1034.56 22.5338 1034.53 22.5579L1034.28 22.7443L1034.37 23.0433C1034.38 23.082 1034.34 23.1141 1034.31 23.0904L1034.05 22.908L1033.8 23.0904C1033.76 23.114 1033.72 23.082 1033.73 23.0433L1033.83 22.7443L1033.57 22.5579C1033.54 22.5338 1033.56 22.482 1033.6 22.4816L1033.91 22.4792L1034.01 22.1816C1034.02 22.1431 1034.08 22.1431 1034.09 22.1816Z" fill="#F5F5F5"/>
<path d="M1034.09 23.7383L1034.19 24.0359L1034.5 24.0382C1034.55 24.0386 1034.56 24.0903 1034.53 24.1145L1034.28 24.3009L1034.37 24.5999C1034.38 24.6386 1034.34 24.6707 1034.31 24.6471L1034.05 24.4647L1033.8 24.6471C1033.76 24.6707 1033.72 24.6386 1033.73 24.5999L1033.83 24.3009L1033.57 24.1145C1033.54 24.0903 1033.56 24.0386 1033.6 24.0382L1033.91 24.0359L1034.01 23.7383C1034.02 23.6998 1034.08 23.6998 1034.09 23.7383Z" fill="#F5F5F5"/>
<path d="M1035.3 18.2748L1035.4 18.5724L1035.71 18.5748C1035.75 18.5752 1035.77 18.627 1035.74 18.6511L1035.49 18.8375L1035.58 19.1365C1035.59 19.1752 1035.55 19.2073 1035.52 19.1836L1035.26 19.0012L1035 19.1836C1034.97 19.2072 1034.93 19.1752 1034.94 19.1365L1035.03 18.8375L1034.78 18.6511C1034.75 18.6269 1034.77 18.5752 1034.81 18.5748L1035.12 18.5724L1035.22 18.2748C1035.23 18.2363 1035.29 18.2363 1035.3 18.2748Z" fill="#F5F5F5"/>
<path d="M1035.3 19.8316L1035.4 20.1292L1035.71 20.1315C1035.75 20.1319 1035.77 20.1837 1035.74 20.2078L1035.49 20.3942L1035.58 20.6932C1035.59 20.7319 1035.55 20.764 1035.52 20.7404L1035.26 20.558L1035 20.7404C1034.97 20.764 1034.93 20.732 1034.94 20.6932L1035.03 20.3942L1034.78 20.2078C1034.75 20.1837 1034.77 20.1319 1034.81 20.1315L1035.12 20.1292L1035.22 19.8316C1035.23 19.793 1035.29 19.793 1035.3 19.8316Z" fill="#F5F5F5"/>
<path d="M1035.3 21.3882L1035.4 21.6858L1035.71 21.6882C1035.75 21.6885 1035.77 21.7403 1035.74 21.7644L1035.49 21.9508L1035.58 22.2499C1035.59 22.2885 1035.55 22.3206 1035.52 22.297L1035.26 22.1146L1035 22.297C1034.97 22.3206 1034.93 22.2885 1034.94 22.2499L1035.03 21.9508L1034.78 21.7644C1034.75 21.7403 1034.77 21.6885 1034.81 21.6882L1035.12 21.6858L1035.22 21.3882C1035.23 21.3496 1035.29 21.3496 1035.3 21.3882Z" fill="#F5F5F5"/>
<path d="M1035.3 22.9448L1035.4 23.2424L1035.71 23.2448C1035.75 23.2451 1035.77 23.2969 1035.74 23.3211L1035.49 23.5074L1035.58 23.8065C1035.59 23.8452 1035.55 23.8773 1035.52 23.8536L1035.26 23.6712L1035 23.8536C1034.97 23.8773 1034.93 23.8452 1034.94 23.8065L1035.03 23.5074L1034.78 23.3211C1034.75 23.2969 1034.77 23.2451 1034.81 23.2448L1035.12 23.2424L1035.22 22.9448C1035.23 22.9063 1035.29 22.9063 1035.3 22.9448Z" fill="#F5F5F5"/>
<path d="M1036.51 17.5117L1036.61 17.8092L1036.92 17.8116C1036.96 17.812 1036.98 17.8638 1036.95 17.8879L1036.69 18.0742L1036.79 18.3733C1036.8 18.412 1036.76 18.4441 1036.72 18.4204L1036.47 18.238L1036.21 18.4204C1036.18 18.4441 1036.14 18.412 1036.15 18.3733L1036.24 18.0742L1035.99 17.8879C1035.96 17.8637 1035.97 17.8119 1036.02 17.8116L1036.33 17.8092L1036.43 17.5117C1036.44 17.4731 1036.5 17.4731 1036.51 17.5117Z" fill="#F5F5F5"/>
<path d="M1036.51 19.0683L1036.61 19.3659L1036.92 19.3683C1036.96 19.3686 1036.98 19.4204 1036.95 19.4445L1036.69 19.6309L1036.79 19.93C1036.8 19.9686 1036.76 20.0007 1036.72 19.9771L1036.47 19.7947L1036.21 19.9771C1036.18 20.0007 1036.14 19.9686 1036.15 19.93L1036.24 19.6309L1035.99 19.4445C1035.96 19.4204 1035.97 19.3686 1036.02 19.3683L1036.33 19.3659L1036.43 19.0683C1036.44 19.0298 1036.5 19.0298 1036.51 19.0683Z" fill="#F5F5F5"/>
<path d="M1036.51 20.625L1036.61 20.9226L1036.92 20.925C1036.96 20.9254 1036.98 20.9771 1036.95 21.0013L1036.69 21.1876L1036.79 21.4867C1036.8 21.5254 1036.76 21.5575 1036.72 21.5338L1036.47 21.3514L1036.21 21.5338C1036.18 21.5574 1036.14 21.5254 1036.15 21.4867L1036.24 21.1876L1035.99 21.0013C1035.96 20.9771 1035.97 20.9254 1036.02 20.925L1036.33 20.9226L1036.43 20.625C1036.44 20.5865 1036.5 20.5865 1036.51 20.625Z" fill="#F5F5F5"/>
<path d="M1036.51 22.1816L1036.61 22.4792L1036.92 22.4816C1036.96 22.482 1036.98 22.5338 1036.95 22.5579L1036.69 22.7443L1036.79 23.0433C1036.8 23.082 1036.76 23.1141 1036.72 23.0904L1036.47 22.908L1036.21 23.0904C1036.18 23.114 1036.14 23.082 1036.15 23.0433L1036.24 22.7443L1035.99 22.5579C1035.96 22.5338 1035.97 22.482 1036.02 22.4816L1036.33 22.4792L1036.43 22.1816C1036.44 22.1431 1036.5 22.1431 1036.51 22.1816Z" fill="#F5F5F5"/>
<path d="M1036.51 23.7383L1036.61 24.0359L1036.92 24.0382C1036.96 24.0386 1036.98 24.0903 1036.95 24.1145L1036.69 24.3009L1036.79 24.5999C1036.8 24.6386 1036.76 24.6707 1036.72 24.6471L1036.47 24.4647L1036.21 24.6471C1036.18 24.6707 1036.14 24.6386 1036.15 24.5999L1036.24 24.3009L1035.99 24.1145C1035.96 24.0903 1035.97 24.0386 1036.02 24.0382L1036.33 24.0359L1036.43 23.7383C1036.44 23.6998 1036.5 23.6998 1036.51 23.7383Z" fill="#F5F5F5"/>
<path d="M1037.72 18.2748L1037.82 18.5724L1038.13 18.5748C1038.17 18.5752 1038.19 18.627 1038.15 18.6511L1037.9 18.8375L1038 19.1365C1038.01 19.1752 1037.96 19.2073 1037.93 19.1836L1037.68 19.0012L1037.42 19.1836C1037.39 19.2072 1037.34 19.1752 1037.36 19.1365L1037.45 18.8375L1037.2 18.6511C1037.17 18.6269 1037.18 18.5752 1037.22 18.5748L1037.54 18.5724L1037.64 18.2748C1037.65 18.2363 1037.7 18.2363 1037.72 18.2748Z" fill="#F5F5F5"/>
<path d="M1037.72 19.8316L1037.82 20.1292L1038.13 20.1315C1038.17 20.1319 1038.19 20.1837 1038.15 20.2078L1037.9 20.3942L1038 20.6932C1038.01 20.7319 1037.96 20.764 1037.93 20.7404L1037.68 20.558L1037.42 20.7404C1037.39 20.764 1037.34 20.732 1037.36 20.6932L1037.45 20.3942L1037.2 20.2078C1037.17 20.1837 1037.18 20.1319 1037.22 20.1315L1037.54 20.1292L1037.64 19.8316C1037.65 19.793 1037.7 19.793 1037.72 19.8316Z" fill="#F5F5F5"/>
<path d="M1037.72 21.3882L1037.82 21.6858L1038.13 21.6882C1038.17 21.6885 1038.19 21.7403 1038.15 21.7644L1037.9 21.9508L1038 22.2499C1038.01 22.2885 1037.96 22.3206 1037.93 22.297L1037.68 22.1146L1037.42 22.297C1037.39 22.3206 1037.34 22.2885 1037.36 22.2499L1037.45 21.9508L1037.2 21.7644C1037.17 21.7403 1037.18 21.6885 1037.22 21.6882L1037.54 21.6858L1037.64 21.3882C1037.65 21.3496 1037.7 21.3496 1037.72 21.3882Z" fill="#F5F5F5"/>
<path d="M1037.72 22.9448L1037.82 23.2424L1038.13 23.2448C1038.17 23.2451 1038.19 23.2969 1038.15 23.3211L1037.9 23.5074L1038 23.8065C1038.01 23.8452 1037.96 23.8773 1037.93 23.8536L1037.68 23.6712L1037.42 23.8536C1037.39 23.8773 1037.34 23.8452 1037.36 23.8065L1037.45 23.5074L1037.2 23.3211C1037.17 23.2969 1037.18 23.2451 1037.22 23.2448L1037.54 23.2424L1037.64 22.9448C1037.65 22.9063 1037.7 22.9063 1037.72 22.9448Z" fill="#F5F5F5"/>
<path d="M1038.92 17.5117L1039.02 17.8092L1039.34 17.8116C1039.38 17.812 1039.4 17.8638 1039.36 17.8879L1039.11 18.0742L1039.2 18.3733C1039.22 18.412 1039.17 18.4441 1039.14 18.4204L1038.88 18.238L1038.63 18.4204C1038.6 18.4441 1038.55 18.412 1038.56 18.3733L1038.66 18.0742L1038.41 17.8879C1038.37 17.8637 1038.39 17.8119 1038.43 17.8116L1038.75 17.8092L1038.84 17.5117C1038.86 17.4731 1038.91 17.4731 1038.92 17.5117Z" fill="#F5F5F5"/>
<path d="M1038.92 19.0683L1039.02 19.3659L1039.34 19.3683C1039.38 19.3686 1039.4 19.4204 1039.36 19.4445L1039.11 19.6309L1039.2 19.93C1039.22 19.9686 1039.17 20.0007 1039.14 19.9771L1038.88 19.7947L1038.63 19.9771C1038.6 20.0007 1038.55 19.9686 1038.56 19.93L1038.66 19.6309L1038.41 19.4445C1038.37 19.4204 1038.39 19.3686 1038.43 19.3683L1038.75 19.3659L1038.84 19.0683C1038.86 19.0298 1038.91 19.0298 1038.92 19.0683Z" fill="#F5F5F5"/>
<path d="M1038.92 20.625L1039.02 20.9226L1039.34 20.925C1039.38 20.9254 1039.4 20.9771 1039.36 21.0013L1039.11 21.1876L1039.2 21.4867C1039.22 21.5254 1039.17 21.5575 1039.14 21.5338L1038.88 21.3514L1038.63 21.5338C1038.6 21.5574 1038.55 21.5254 1038.56 21.4867L1038.66 21.1876L1038.41 21.0013C1038.37 20.9771 1038.39 20.9254 1038.43 20.925L1038.75 20.9226L1038.84 20.625C1038.86 20.5865 1038.91 20.5865 1038.92 20.625Z" fill="#F5F5F5"/>
<path d="M1038.92 22.1816L1039.02 22.4792L1039.34 22.4816C1039.38 22.482 1039.4 22.5338 1039.36 22.5579L1039.11 22.7443L1039.2 23.0433C1039.22 23.082 1039.17 23.1141 1039.14 23.0904L1038.88 22.908L1038.63 23.0904C1038.6 23.114 1038.55 23.082 1038.56 23.0433L1038.66 22.7443L1038.41 22.5579C1038.37 22.5338 1038.39 22.482 1038.43 22.4816L1038.75 22.4792L1038.84 22.1816C1038.86 22.1431 1038.91 22.1431 1038.92 22.1816Z" fill="#F5F5F5"/>
<path d="M1038.92 23.7383L1039.02 24.0359L1039.34 24.0382C1039.38 24.0386 1039.4 24.0903 1039.36 24.1145L1039.11 24.3009L1039.2 24.5999C1039.22 24.6386 1039.17 24.6707 1039.14 24.6471L1038.88 24.4647L1038.63 24.6471C1038.6 24.6707 1038.55 24.6386 1038.56 24.5999L1038.66 24.3009L1038.41 24.1145C1038.37 24.0903 1038.39 24.0386 1038.43 24.0382L1038.75 24.0359L1038.84 23.7383C1038.86 23.6998 1038.91 23.6998 1038.92 23.7383Z" fill="#F5F5F5"/>
<path d="M768.04 30.16C767.101 30.16 766.307 30.0267 765.656 29.76C765.016 29.4827 764.525 29.12 764.184 28.672C763.853 28.2133 763.661 27.7173 763.608 27.184V27.152C763.608 27.0667 763.64 26.9973 763.704 26.944C763.768 26.8907 763.848 26.864 763.944 26.864H765.384C765.608 26.864 765.763 26.9707 765.848 27.184C765.976 27.536 766.221 27.8187 766.584 28.032C766.947 28.2347 767.416 28.336 767.992 28.336C768.664 28.336 769.213 28.192 769.64 27.904C770.077 27.616 770.296 27.2267 770.296 26.736C770.296 26.224 770.104 25.8293 769.72 25.552C769.347 25.264 768.819 25.12 768.136 25.12H766.984C766.877 25.12 766.787 25.0827 766.712 25.008C766.637 24.9333 766.6 24.8373 766.6 24.72V23.792C766.6 23.6747 766.637 23.5787 766.712 23.504C766.787 23.4293 766.877 23.392 766.984 23.392H768.088C768.664 23.392 769.117 23.2693 769.448 23.024C769.789 22.7787 769.96 22.4107 769.96 21.92C769.96 21.4827 769.779 21.136 769.416 20.88C769.064 20.6133 768.605 20.48 768.04 20.48C767.464 20.48 766.995 20.5813 766.632 20.784C766.28 20.976 766.061 21.264 765.976 21.648C765.933 21.7547 765.88 21.8347 765.816 21.888C765.763 21.9307 765.677 21.952 765.56 21.952H764.072C763.976 21.952 763.891 21.92 763.816 21.856C763.752 21.792 763.725 21.712 763.736 21.616C763.811 20.752 764.205 20.0427 764.92 19.488C765.645 18.9227 766.696 18.64 768.072 18.64C768.925 18.64 769.661 18.784 770.28 19.072C770.909 19.3493 771.389 19.728 771.72 20.208C772.051 20.6773 772.216 21.1893 772.216 21.744C772.216 22.2347 772.115 22.688 771.912 23.104C771.72 23.52 771.4 23.856 770.952 24.112C771.507 24.3893 771.917 24.768 772.184 25.248C772.451 25.7173 772.584 26.2347 772.584 26.8C772.584 27.4613 772.397 28.048 772.024 28.56C771.651 29.0613 771.123 29.456 770.44 29.744C769.757 30.0213 768.957 30.16 768.04 30.16ZM774.976 30C774.869 30 774.778 29.9627 774.704 29.888C774.629 29.8133 774.592 29.7227 774.592 29.616V19.2C774.592 19.0827 774.624 18.9867 774.688 18.912C774.762 18.8373 774.858 18.8 774.976 18.8H776.432C776.549 18.8 776.64 18.8373 776.704 18.912C776.778 18.9867 776.816 19.0827 776.816 19.2V23.328H781.536V19.2C781.536 19.0827 781.568 18.9867 781.632 18.912C781.706 18.8373 781.802 18.8 781.92 18.8H783.36C783.477 18.8 783.573 18.8373 783.648 18.912C783.722 18.9867 783.76 19.0827 783.76 19.2V29.616C783.76 29.7333 783.722 29.8293 783.648 29.904C783.573 29.968 783.477 30 783.36 30H781.92C781.813 30 781.722 29.9627 781.648 29.888C781.573 29.8133 781.536 29.7227 781.536 29.616V25.328H776.816V29.616C776.816 29.7227 776.778 29.8133 776.704 29.888C776.64 29.9627 776.549 30 776.432 30H774.976ZM785.56 30C785.475 30 785.395 29.968 785.32 29.904C785.256 29.84 785.224 29.76 785.224 29.664L785.256 29.52L789.112 19.2C789.187 18.9333 789.373 18.8 789.672 18.8H791.416C791.693 18.8 791.88 18.9333 791.976 19.2L795.832 29.52C795.843 29.552 795.848 29.6 795.848 29.664C795.848 29.76 795.816 29.84 795.752 29.904C795.688 29.968 795.613 30 795.528 30H794.136C793.997 30 793.891 29.968 793.816 29.904C793.741 29.84 793.693 29.7707 793.672 29.696L792.92 27.744H788.168L787.416 29.696C787.331 29.8987 787.176 30 786.952 30H785.56ZM792.36 25.904L790.536 20.96L788.728 25.904H792.36ZM806.286 29.456C806.318 29.4987 806.334 29.5573 806.334 29.632C806.334 29.728 806.296 29.8133 806.222 29.888C806.158 29.9627 806.072 30 805.966 30H804.318C804.19 30 804.094 29.9787 804.03 29.936C803.966 29.8827 803.902 29.8133 803.838 29.728L801.086 25.328H799.566V29.616C799.566 29.7227 799.528 29.8133 799.454 29.888C799.39 29.9627 799.299 30 799.182 30H797.726C797.619 30 797.528 29.9627 797.454 29.888C797.379 29.8133 797.342 29.7227 797.342 29.616V19.2C797.342 19.0827 797.374 18.9867 797.438 18.912C797.512 18.8373 797.608 18.8 797.726 18.8H799.182C799.299 18.8 799.39 18.8373 799.454 18.912C799.528 18.9867 799.566 19.0827 799.566 19.2V23.328L800.974 23.344L803.566 19.088C803.672 18.896 803.864 18.8 804.142 18.8H805.726C805.832 18.8 805.912 18.832 805.966 18.896C806.03 18.96 806.062 19.04 806.062 19.136C806.062 19.1787 806.04 19.2427 805.998 19.328L802.974 24.208L806.286 29.456ZM811.786 30.16C810.336 30.16 809.205 29.792 808.394 29.056C807.584 28.32 807.157 27.2267 807.114 25.776C807.104 25.4667 807.098 25.0133 807.098 24.416C807.098 23.808 807.104 23.3493 807.114 23.04C807.157 21.6213 807.594 20.5333 808.426 19.776C809.258 19.0187 810.378 18.64 811.786 18.64C813.194 18.64 814.314 19.0187 815.146 19.776C815.989 20.5333 816.432 21.6213 816.474 23.04C816.496 23.6587 816.506 24.1173 816.506 24.416C816.506 24.704 816.496 25.1573 816.474 25.776C816.421 27.2267 815.989 28.32 815.178 29.056C814.368 29.792 813.237 30.16 811.786 30.16ZM811.786 28.32C812.501 28.32 813.072 28.1067 813.498 27.68C813.925 27.2427 814.154 26.5813 814.186 25.696C814.208 25.056 814.218 24.624 814.218 24.4C814.218 24.1547 814.208 23.7227 814.186 23.104C814.154 22.2187 813.925 21.5627 813.498 21.136C813.072 20.6987 812.501 20.48 811.786 20.48C811.082 20.48 810.517 20.6987 810.09 21.136C809.664 21.5627 809.434 22.2187 809.402 23.104C809.392 23.4133 809.386 23.8453 809.386 24.4C809.386 24.944 809.392 25.376 809.402 25.696C809.434 26.5813 809.658 27.2427 810.074 27.68C810.501 28.1067 811.072 28.32 811.786 28.32ZM819.007 30C818.89 30 818.794 29.968 818.719 29.904C818.645 29.8293 818.607 29.7333 818.607 29.616V19.2C818.607 19.0827 818.645 18.9867 818.719 18.912C818.794 18.8373 818.89 18.8 819.007 18.8H820.271C820.495 18.8 820.655 18.9013 820.751 19.104L823.839 24.864L826.959 19.104C827.066 18.9013 827.226 18.8 827.439 18.8H828.687C828.805 18.8 828.901 18.8373 828.975 18.912C829.05 18.9867 829.087 19.0827 829.087 19.2V29.616C829.087 29.7333 829.05 29.8293 828.975 29.904C828.901 29.968 828.805 30 828.687 30H827.343C827.237 30 827.146 29.9627 827.071 29.888C826.997 29.8133 826.959 29.7227 826.959 29.616V22.688L824.719 26.96C824.581 27.1947 824.399 27.312 824.175 27.312H823.519C823.295 27.312 823.114 27.1947 822.975 26.96L820.735 22.688V29.616C820.735 29.7227 820.698 29.8133 820.623 29.888C820.559 29.9627 820.469 30 820.351 30H819.007ZM835.896 30.16C834.424 30.16 833.283 29.7813 832.472 29.024C831.672 28.2667 831.245 27.2 831.192 25.824C831.181 25.536 831.176 25.0667 831.176 24.416C831.176 23.7547 831.181 23.2747 831.192 22.976C831.245 21.6107 831.677 20.5493 832.488 19.792C833.309 19.024 834.445 18.64 835.896 18.64C836.845 18.64 837.672 18.8053 838.376 19.136C839.08 19.456 839.624 19.8987 840.008 20.464C840.392 21.0187 840.595 21.648 840.616 22.352V22.384C840.616 22.4693 840.579 22.544 840.504 22.608C840.44 22.6613 840.365 22.688 840.28 22.688H838.76C838.632 22.688 838.536 22.6613 838.472 22.608C838.408 22.5547 838.355 22.4533 838.312 22.304C838.141 21.632 837.859 21.1627 837.464 20.896C837.069 20.6187 836.541 20.48 835.88 20.48C834.344 20.48 833.544 21.3387 833.48 23.056C833.469 23.344 833.464 23.7867 833.464 24.384C833.464 24.9813 833.469 25.4347 833.48 25.744C833.544 27.4613 834.344 28.32 835.88 28.32C836.541 28.32 837.069 28.1813 837.464 27.904C837.869 27.6267 838.152 27.1573 838.312 26.496C838.344 26.3467 838.392 26.2453 838.456 26.192C838.531 26.1387 838.632 26.112 838.76 26.112H840.28C840.376 26.112 840.456 26.144 840.52 26.208C840.595 26.272 840.627 26.352 840.616 26.448C840.595 27.152 840.392 27.7867 840.008 28.352C839.624 28.9067 839.08 29.3493 838.376 29.68C837.672 30 836.845 30.16 835.896 30.16ZM845.362 30C845.255 30 845.164 29.9627 845.09 29.888C845.015 29.8133 844.978 29.7227 844.978 29.616V20.768H842.018C841.911 20.768 841.82 20.7307 841.746 20.656C841.671 20.5813 841.634 20.4907 841.634 20.384V19.2C841.634 19.0827 841.666 18.9867 841.73 18.912C841.804 18.8373 841.9 18.8 842.018 18.8H850.178C850.295 18.8 850.391 18.8373 850.466 18.912C850.54 18.9867 850.578 19.0827 850.578 19.2V20.384C850.578 20.4907 850.54 20.5813 850.466 20.656C850.391 20.7307 850.295 20.768 850.178 20.768H847.234V29.616C847.234 29.7227 847.196 29.8133 847.122 29.888C847.047 29.9627 846.951 30 846.834 30H845.362ZM852.585 30C852.478 30 852.388 29.9627 852.313 29.888C852.238 29.8133 852.201 29.7227 852.201 29.616V19.2C852.201 19.0827 852.233 18.9867 852.297 18.912C852.372 18.8373 852.468 18.8 852.585 18.8H857.225C858.473 18.8 859.401 19.0773 860.009 19.632C860.628 20.176 860.937 20.9227 860.937 21.872C860.937 22.4267 860.798 22.9013 860.521 23.296C860.254 23.68 859.94 23.9573 859.577 24.128C860.025 24.3307 860.398 24.6613 860.697 25.12C861.006 25.5787 861.161 26.1013 861.161 26.688C861.161 27.68 860.825 28.48 860.153 29.088C859.492 29.696 858.558 30 857.353 30H852.585ZM856.937 23.392C857.492 23.392 857.913 23.2587 858.201 22.992C858.489 22.7253 858.633 22.368 858.633 21.92C858.633 21.4613 858.489 21.1093 858.201 20.864C857.913 20.608 857.492 20.48 856.937 20.48H854.425V23.392H856.937ZM857.097 28.304C857.652 28.304 858.084 28.1547 858.393 27.856C858.702 27.5467 858.857 27.1573 858.857 26.688C858.857 26.208 858.702 25.8187 858.393 25.52C858.084 25.2107 857.652 25.056 857.097 25.056H854.425V28.304H857.097ZM862.482 30C862.397 30 862.317 29.968 862.242 29.904C862.178 29.84 862.146 29.76 862.146 29.664L862.178 29.52L866.034 19.2C866.109 18.9333 866.295 18.8 866.594 18.8H868.338C868.615 18.8 868.802 18.9333 868.898 19.2L872.754 29.52C872.765 29.552 872.77 29.6 872.77 29.664C872.77 29.76 872.738 29.84 872.674 29.904C872.61 29.968 872.535 30 872.45 30H871.058C870.919 30 870.813 29.968 870.738 29.904C870.663 29.84 870.615 29.7707 870.594 29.696L869.842 27.744H865.09L864.338 29.696C864.253 29.8987 864.098 30 863.874 30H862.482ZM869.282 25.904L867.458 20.96L865.65 25.904H869.282ZM878.304 30C878.197 30 878.107 29.9627 878.032 29.888C877.957 29.8133 877.92 29.7227 877.92 29.616V19.2C877.92 19.0827 877.952 18.9867 878.016 18.912C878.091 18.8373 878.187 18.8 878.304 18.8H886.688C886.805 18.8 886.901 18.8373 886.976 18.912C887.051 18.9867 887.088 19.0827 887.088 19.2V29.616C887.088 29.7333 887.051 29.8293 886.976 29.904C886.901 29.968 886.805 30 886.688 30H885.248C885.141 30 885.051 29.9627 884.976 29.888C884.901 29.8133 884.864 29.7227 884.864 29.616V20.8H880.144V29.616C880.144 29.7227 880.107 29.8133 880.032 29.888C879.968 29.9627 879.877 30 879.76 30H878.304ZM893.88 30.16C892.429 30.16 891.299 29.792 890.488 29.056C889.677 28.32 889.251 27.2267 889.208 25.776C889.197 25.4667 889.192 25.0133 889.192 24.416C889.192 23.808 889.197 23.3493 889.208 23.04C889.251 21.6213 889.688 20.5333 890.52 19.776C891.352 19.0187 892.472 18.64 893.88 18.64C895.288 18.64 896.408 19.0187 897.24 19.776C898.083 20.5333 898.525 21.6213 898.568 23.04C898.589 23.6587 898.6 24.1173 898.6 24.416C898.6 24.704 898.589 25.1573 898.568 25.776C898.515 27.2267 898.083 28.32 897.272 29.056C896.461 29.792 895.331 30.16 893.88 30.16ZM893.88 28.32C894.595 28.32 895.165 28.1067 895.592 27.68C896.019 27.2427 896.248 26.5813 896.28 25.696C896.301 25.056 896.312 24.624 896.312 24.4C896.312 24.1547 896.301 23.7227 896.28 23.104C896.248 22.2187 896.019 21.5627 895.592 21.136C895.165 20.6987 894.595 20.48 893.88 20.48C893.176 20.48 892.611 20.6987 892.184 21.136C891.757 21.5627 891.528 22.2187 891.496 23.104C891.485 23.4133 891.48 23.8453 891.48 24.4C891.48 24.944 891.485 25.376 891.496 25.696C891.528 26.5813 891.752 27.2427 892.168 27.68C892.595 28.1067 893.165 28.32 893.88 28.32ZM904.741 30C904.635 30 904.544 29.9627 904.469 29.888C904.395 29.8133 904.357 29.7227 904.357 29.616V19.2C904.357 19.0827 904.389 18.9867 904.453 18.912C904.528 18.8373 904.624 18.8 904.741 18.8H909.381C910.629 18.8 911.557 19.0773 912.165 19.632C912.784 20.176 913.093 20.9227 913.093 21.872C913.093 22.4267 912.955 22.9013 912.677 23.296C912.411 23.68 912.096 23.9573 911.733 24.128C912.181 24.3307 912.555 24.6613 912.853 25.12C913.163 25.5787 913.317 26.1013 913.317 26.688C913.317 27.68 912.981 28.48 912.309 29.088C911.648 29.696 910.715 30 909.509 30H904.741ZM909.093 23.392C909.648 23.392 910.069 23.2587 910.357 22.992C910.645 22.7253 910.789 22.368 910.789 21.92C910.789 21.4613 910.645 21.1093 910.357 20.864C910.069 20.608 909.648 20.48 909.093 20.48H906.581V23.392H909.093ZM909.253 28.304C909.808 28.304 910.24 28.1547 910.549 27.856C910.859 27.5467 911.013 27.1573 911.013 26.688C911.013 26.208 910.859 25.8187 910.549 25.52C910.24 25.2107 909.808 25.056 909.253 25.056H906.581V28.304H909.253ZM919.646 30.16C918.174 30.16 917.033 29.7813 916.222 29.024C915.422 28.2667 914.995 27.2 914.942 25.824C914.931 25.536 914.926 25.0667 914.926 24.416C914.926 23.7547 914.931 23.2747 914.942 22.976C914.995 21.6107 915.427 20.5493 916.238 19.792C917.059 19.024 918.195 18.64 919.646 18.64C920.595 18.64 921.422 18.8053 922.126 19.136C922.83 19.456 923.374 19.8987 923.758 20.464C924.142 21.0187 924.345 21.648 924.366 22.352V22.384C924.366 22.4693 924.329 22.544 924.254 22.608C924.19 22.6613 924.115 22.688 924.03 22.688H922.51C922.382 22.688 922.286 22.6613 922.222 22.608C922.158 22.5547 922.105 22.4533 922.062 22.304C921.891 21.632 921.609 21.1627 921.214 20.896C920.819 20.6187 920.291 20.48 919.63 20.48C918.094 20.48 917.294 21.3387 917.23 23.056C917.219 23.344 917.214 23.7867 917.214 24.384C917.214 24.9813 917.219 25.4347 917.23 25.744C917.294 27.4613 918.094 28.32 919.63 28.32C920.291 28.32 920.819 28.1813 921.214 27.904C921.619 27.6267 921.902 27.1573 922.062 26.496C922.094 26.3467 922.142 26.2453 922.206 26.192C922.281 26.1387 922.382 26.112 922.51 26.112H924.03C924.126 26.112 924.206 26.144 924.27 26.208C924.345 26.272 924.377 26.352 924.366 26.448C924.345 27.152 924.142 27.7867 923.758 28.352C923.374 28.9067 922.83 29.3493 922.126 29.68C921.422 30 920.595 30.16 919.646 30.16ZM926.648 30C926.541 30 926.45 29.9627 926.376 29.888C926.301 29.8133 926.264 29.7227 926.264 29.616V19.2C926.264 19.0827 926.296 18.9867 926.36 18.912C926.434 18.8373 926.53 18.8 926.648 18.8H933.688C933.805 18.8 933.901 18.8373 933.976 18.912C934.05 18.9867 934.088 19.0827 934.088 19.2V20.256C934.088 20.3733 934.05 20.4693 933.976 20.544C933.901 20.608 933.805 20.64 933.688 20.64H928.424V23.472H933.336C933.453 23.472 933.549 23.5093 933.624 23.584C933.698 23.648 933.736 23.7387 933.736 23.856V24.848C933.736 24.9653 933.698 25.0613 933.624 25.136C933.549 25.2 933.453 25.232 933.336 25.232H928.424V28.16H933.816C933.933 28.16 934.029 28.1973 934.104 28.272C934.178 28.3467 934.216 28.4427 934.216 28.56V29.616C934.216 29.7333 934.178 29.8293 934.104 29.904C934.029 29.968 933.933 30 933.816 30H926.648ZM936.617 30C936.499 30 936.403 29.968 936.329 29.904C936.254 29.8293 936.217 29.7333 936.217 29.616V19.2C936.217 19.0827 936.254 18.9867 936.329 18.912C936.403 18.8373 936.499 18.8 936.617 18.8H937.881C938.105 18.8 938.265 18.9013 938.361 19.104L941.449 24.864L944.569 19.104C944.675 18.9013 944.835 18.8 945.049 18.8H946.297C946.414 18.8 946.51 18.8373 946.585 18.912C946.659 18.9867 946.697 19.0827 946.697 19.2V29.616C946.697 29.7333 946.659 29.8293 946.585 29.904C946.51 29.968 946.414 30 946.297 30H944.953C944.846 30 944.755 29.9627 944.681 29.888C944.606 29.8133 944.569 29.7227 944.569 29.616V22.688L942.329 26.96C942.19 27.1947 942.009 27.312 941.785 27.312H941.129C940.905 27.312 940.723 27.1947 940.585 26.96L938.345 22.688V29.616C938.345 29.7227 938.307 29.8133 938.233 29.888C938.169 29.9627 938.078 30 937.961 30H936.617ZM957.522 18.8C957.607 18.8 957.682 18.832 957.746 18.896C957.82 18.96 957.858 19.0347 957.858 19.12C957.858 19.1947 957.836 19.2853 957.794 19.392L954.578 26.736C954.204 27.5893 953.858 28.24 953.538 28.688C953.228 29.136 952.855 29.4667 952.418 29.68C951.98 29.8933 951.41 30 950.706 30H949.954C949.847 30 949.756 29.9627 949.682 29.888C949.607 29.8133 949.57 29.7227 949.57 29.616V28.432C949.57 28.3147 949.607 28.2187 949.682 28.144C949.756 28.0693 949.847 28.032 949.954 28.032H950.546C950.908 28.032 951.218 27.936 951.474 27.744C951.73 27.552 951.975 27.232 952.21 26.784L948.162 19.312C948.13 19.248 948.114 19.1947 948.114 19.152C948.114 19.056 948.146 18.976 948.21 18.912C948.284 18.8373 948.37 18.8 948.465 18.8H950.034C950.215 18.8 950.354 18.9013 950.45 19.104L953.282 24.384L955.602 19.104C955.676 18.9013 955.82 18.8 956.034 18.8H957.522ZM963.148 30C963.031 30 962.935 29.968 962.86 29.904C962.785 29.8293 962.748 29.7333 962.748 29.616V19.2C962.748 19.0827 962.785 18.9867 962.86 18.912C962.935 18.8373 963.031 18.8 963.148 18.8H964.412C964.636 18.8 964.796 18.9013 964.892 19.104L967.98 24.864L971.1 19.104C971.207 18.9013 971.367 18.8 971.58 18.8H972.828C972.945 18.8 973.041 18.8373 973.116 18.912C973.191 18.9867 973.228 19.0827 973.228 19.2V29.616C973.228 29.7333 973.191 29.8293 973.116 29.904C973.041 29.968 972.945 30 972.828 30H971.484C971.377 30 971.287 29.9627 971.212 29.888C971.137 29.8133 971.1 29.7227 971.1 29.616V22.688L968.86 26.96C968.721 27.1947 968.54 27.312 968.316 27.312H967.66C967.436 27.312 967.255 27.1947 967.116 26.96L964.876 22.688V29.616C964.876 29.7227 964.839 29.8133 964.764 29.888C964.7 29.9627 964.609 30 964.492 30H963.148ZM976.101 30C975.983 30 975.887 29.9627 975.813 29.888C975.749 29.8133 975.717 29.7173 975.717 29.6V19.2C975.717 19.0827 975.754 18.9867 975.829 18.912C975.903 18.8373 975.999 18.8 976.117 18.8H977.557C977.674 18.8 977.765 18.8373 977.829 18.912C977.903 18.9867 977.941 19.0827 977.941 19.2V26.544L983.205 19.056C983.322 18.8853 983.477 18.8 983.669 18.8H984.997C985.114 18.8 985.205 18.8373 985.269 18.912C985.343 18.9867 985.381 19.0827 985.381 19.2V29.616C985.381 29.7227 985.343 29.8133 985.269 29.888C985.205 29.9627 985.114 30 984.997 30H983.557C983.439 30 983.343 29.968 983.269 29.904C983.194 29.8293 983.157 29.7333 983.157 29.616V22.416L977.909 29.744C977.845 29.8293 977.781 29.8933 977.717 29.936C977.653 29.9787 977.562 30 977.445 30H976.101ZM988.257 30C988.15 30 988.06 29.9627 987.985 29.888C987.91 29.8133 987.873 29.7227 987.873 29.616V19.2C987.873 19.0827 987.905 18.9867 987.969 18.912C988.044 18.8373 988.14 18.8 988.257 18.8H992.545C993.825 18.8 994.833 19.104 995.569 19.712C996.305 20.3093 996.673 21.1893 996.673 22.352C996.673 23.5147 996.305 24.3947 995.569 24.992C994.844 25.5787 993.836 25.872 992.545 25.872H990.161V29.616C990.161 29.7227 990.124 29.8133 990.049 29.888C989.985 29.9627 989.894 30 989.777 30H988.257ZM992.465 24.096C993.084 24.096 993.558 23.952 993.889 23.664C994.22 23.3653 994.385 22.928 994.385 22.352C994.385 21.7973 994.225 21.3653 993.905 21.056C993.585 20.736 993.105 20.576 992.465 20.576H990.129V24.096H992.465ZM1006.76 18.8C1006.84 18.8 1006.92 18.832 1006.98 18.896C1007.05 18.96 1007.09 19.0347 1007.09 19.12C1007.09 19.1947 1007.07 19.2853 1007.03 19.392L1003.81 26.736C1003.44 27.5893 1003.09 28.24 1002.77 28.688C1002.46 29.136 1002.09 29.4667 1001.65 29.68C1001.21 29.8933 1000.64 30 999.94 30H999.188C999.081 30 998.991 29.9627 998.916 29.888C998.841 29.8133 998.804 29.7227 998.804 29.616V28.432C998.804 28.3147 998.841 28.2187 998.916 28.144C998.991 28.0693 999.081 28.032 999.188 28.032H999.78C1000.14 28.032 1000.45 27.936 1000.71 27.744C1000.96 27.552 1001.21 27.232 1001.44 26.784L997.396 19.312C997.364 19.248 997.348 19.1947 997.348 19.152C997.348 19.056 997.38 18.976 997.444 18.912C997.519 18.8373 997.604 18.8 997.7 18.8H999.268C999.449 18.8 999.588 18.9013 999.684 19.104L1002.52 24.384L1004.84 19.104C1004.91 18.9013 1005.05 18.8 1005.27 18.8H1006.76Z" fill="white"/>
</svg>
